<svg width="24" height="25" viewBox="0 0 24 25" fill="none" xmlns="http://www.w3.org/2000/svg">
<path d="M6 4.21409C6.2 4.01409 6.43767 3.91409 6.713 3.91409C6.98833 3.91409 7.22567 4.01409 7.425 4.21409L9 5.81409C9.2 6.01409 9.3 6.24742 9.3 6.51409C9.3 6.78075 9.2 7.01409 9 7.21409C8.8 7.41409 8.56267 7.51409 8.288 7.51409C8.01333 7.51409 7.77567 7.41409 7.575 7.21409L5.975 5.63909C5.775 5.43909 5.679 5.20175 5.687 4.92709C5.695 4.65242 5.79933 4.41475 6 4.21409ZM13 1.31409C13.2833 1.31409 13.521 1.41009 13.713 1.60209C13.905 1.79409 14.0007 2.03142 14 2.31409V4.56409C14 4.84742 13.904 5.08509 13.712 5.27709C13.52 5.46909 13.2827 5.56475 13 5.56409C12.7173 5.56342 12.48 5.46775 12.288 5.27709C12.096 5.08642 12 4.84875 12 4.56409V2.31409C12 2.03075 12.096 1.79342 12.288 1.60209C12.48 1.41075 12.7173 1.31475 13 1.31409ZM17 15.2141C17.2 15.0141 17.4377 14.9141 17.713 14.9141C17.9883 14.9141 18.2257 15.0141 18.425 15.2141L20 16.8141C20.2 17.0141 20.3 17.2474 20.3 17.5141C20.3 17.7808 20.2 18.0141 20 18.2141C19.8 18.4141 19.5623 18.5141 19.287 18.5141C19.0117 18.5141 18.7743 18.4141 18.575 18.2141L16.975 16.6391C16.775 16.4391 16.679 16.2018 16.687 15.9271C16.695 15.6524 16.7993 15.4148 17 15.2141ZM20 4.21409C20.2 4.41409 20.3 4.65175 20.3 4.92709C20.3 5.20242 20.2 5.43975 20 5.63909L18.4 7.23909C18.2 7.43909 17.9667 7.53509 17.7 7.52709C17.4333 7.51909 17.2 7.41475 17 7.21409C16.8 7.01342 16.7 6.77609 16.7 6.50209C16.7 6.22809 16.8 5.99042 17 5.78909L18.575 4.21409C18.775 4.01409 19.0127 3.91409 19.288 3.91409C19.5633 3.91409 19.8007 4.01409 20 4.21409ZM22.9 11.2141C22.9 11.4974 22.804 11.7351 22.612 11.9271C22.42 12.1191 22.1827 12.2148 21.9 12.2141H19.65C19.3667 12.2141 19.1293 12.1181 18.938 11.9261C18.7467 11.7341 18.6507 11.4968 18.65 11.2141C18.6493 10.9314 18.7453 10.6941 18.938 10.5021C19.1307 10.3101 19.368 10.2141 19.65 10.2141H21.9C22.1833 10.2141 22.421 10.3101 22.613 10.5021C22.805 10.6941 22.9007 10.9314 22.9 11.2141ZM5.125 21.9141L2.3 19.0891C2.1 18.8891 2 18.6558 2 18.3891C2 18.1224 2.1 17.8891 2.3 17.6891L11.375 8.58909C11.9583 8.00575 12.6667 7.71409 13.5 7.71409C14.3333 7.71409 15.0417 8.00575 15.625 8.58909C16.2083 9.17242 16.5 9.88075 16.5 10.7141C16.5 11.5474 16.2083 12.2558 15.625 12.8391L6.525 21.9141C6.325 22.1141 6.09167 22.2141 5.825 22.2141C5.55833 22.2141 5.325 22.1141 5.125 21.9141ZM12.1 13.5391L14.2 11.4141C14.4 11.2141 14.5 10.9808 14.5 10.7141C14.5 10.4474 14.4 10.2141 14.2 10.0141C14 9.81409 13.7667 9.71409 13.5 9.71409C13.2333 9.71409 13 9.81409 12.8 10.0141L10.675 12.1391L12.1 13.5391Z" fill="black"/>
</svg>
