<svg width="24" height="24" viewBox="0 0 24 24" fill="none" xmlns="http://www.w3.org/2000/svg">
<path fill-rule="evenodd" clip-rule="evenodd" d="M24 12C24 13.6834 23.1909 15.1783 21.9394 16.1177C22.0528 16.9084 21.9805 17.7146 21.7282 18.4725C21.4759 19.2304 21.0505 19.9191 20.4857 20.484C19.9208 21.0493 19.2319 21.4752 18.4737 21.7278C17.7155 21.9804 16.9088 22.0529 16.1177 21.9394C15.6387 22.5792 15.0171 23.0986 14.3023 23.4563C13.5876 23.814 12.7993 24.0001 12 24C11.2007 24.0001 10.4124 23.814 9.69765 23.4563C8.98288 23.0986 8.36132 22.5792 7.88229 21.9394C7.09159 22.0528 6.28535 21.9805 5.52747 21.7282C4.76959 21.4759 4.0809 21.0505 3.516 20.4857C2.95069 19.9208 2.52483 19.2319 2.27219 18.4737C2.01955 17.7155 1.9471 16.9088 2.06057 16.1177C1.42075 15.6387 0.901395 15.0171 0.543712 14.3023C0.186028 13.5876 -0.000133479 12.7993 7.18048e-08 12C7.18048e-08 10.3166 0.809143 8.82171 2.06057 7.88229C1.94715 7.09159 2.01948 6.28535 2.27181 5.52747C2.52414 4.76959 2.94954 4.0809 3.51429 3.516C4.07921 2.95069 4.76811 2.52483 5.52632 2.27219C6.28453 2.01955 7.09119 1.9471 7.88229 2.06057C8.36132 1.42075 8.98288 0.901395 9.69765 0.543712C10.4124 0.186028 11.2007 -0.000133479 12 7.18048e-08C13.6834 7.18048e-08 15.1783 0.809143 16.1177 2.06057C16.9084 1.94715 17.7146 2.01948 18.4725 2.27181C19.2304 2.52414 19.9191 2.94954 20.484 3.51429C21.6754 4.70571 22.1606 6.33429 21.9394 7.88229C22.5792 8.36132 23.0986 8.98288 23.4563 9.69765C23.814 10.4124 24.0001 11.2007 24 12ZM18.3583 7.12629C18.6281 7.33475 18.8041 7.64187 18.8475 7.98007C18.8909 8.31828 18.7982 8.65987 18.5897 8.92971L11.304 18.3583C11.1888 18.5073 11.0423 18.6292 10.8748 18.7154C10.7073 18.8016 10.5229 18.8499 10.3347 18.8569C10.1465 18.8639 9.95897 18.8295 9.78551 18.7561C9.61205 18.6827 9.45684 18.572 9.33086 18.432L5.47371 14.1463C5.35652 14.0216 5.26539 13.8748 5.20567 13.7144C5.14595 13.5541 5.11884 13.3834 5.12592 13.2125C5.13301 13.0415 5.17414 12.8737 5.24693 12.7188C5.31971 12.564 5.42267 12.4252 5.54977 12.3106C5.67688 12.1961 5.82557 12.108 5.98714 12.0517C6.1487 11.9954 6.31989 11.9718 6.49067 11.9825C6.66145 11.9932 6.82838 12.0378 6.98168 12.1138C7.13498 12.1898 7.27156 12.2957 7.38343 12.4251L10.212 15.5657L16.5549 7.356C16.7636 7.08643 17.0708 6.9108 17.409 6.86772C17.7472 6.82464 18.0887 6.91765 18.3583 7.12629Z" fill="#48BEFF"/>
</svg>
