<svg width="25" height="25" viewBox="0 0 25 25" fill="none" xmlns="http://www.w3.org/2000/svg">
<path d="M12.0839 19.2679H20.1825C20.4979 19.2855 20.8125 19.2221 21.0964 19.0837C21.3804 18.9453 21.6241 18.7364 21.8044 18.4771C21.9847 18.2177 22.0955 17.9165 22.1264 17.6021C22.1572 17.2878 22.1071 16.9708 21.9806 16.6813C21.5525 15.3874 19.846 13.8355 19.846 12.3085C19.846 8.91924 19.846 8.02732 18.1763 6.03418C17.636 5.39264 16.966 4.87266 16.2105 4.50841L15.2793 4.0565C15.1231 3.96219 14.9883 3.83624 14.8837 3.68673C14.779 3.53721 14.7068 3.36746 14.6717 3.18837C14.5786 2.58473 14.2594 2.03908 13.7788 1.6621C13.2983 1.28513 12.6923 1.10504 12.0839 1.15836C11.4864 1.12249 10.8971 1.3106 10.4309 1.68597C9.96469 2.06135 9.65516 2.59702 9.56274 3.18837C9.52082 3.37364 9.4387 3.54743 9.32218 3.69745C9.20565 3.84747 9.05759 3.97004 8.88845 4.0565L7.95729 4.50841C7.20217 4.8728 6.53266 5.39277 5.99269 6.03418C4.32421 8.02732 4.32421 8.91924 4.32421 12.3085C4.32421 13.8355 2.69497 15.2316 2.26685 16.6028C2.00879 17.4317 1.86608 19.2679 4.0269 19.2679H12.0839Z" stroke="black" stroke-width="1.6" stroke-linecap="round" stroke-linejoin="round"/>
<path d="M15.9642 19.2678C15.9744 19.7802 15.881 20.2894 15.6896 20.7648C15.4982 21.2402 15.2127 21.672 14.8503 22.0344C14.4879 22.3968 14.0561 22.6822 13.5807 22.8736C13.1053 23.065 12.5961 23.1585 12.0837 23.1483C11.5712 23.1591 11.0618 23.0662 10.5862 22.875C10.1105 22.6838 9.6785 22.3984 9.31607 22.0358C8.95364 21.6733 8.66833 21.2412 8.4773 20.7655C8.28626 20.2898 8.19347 19.7803 8.20449 19.2678" stroke="black" stroke-width="1.6" stroke-linecap="round" stroke-linejoin="round"/>
</svg>
