<svg width="25" height="25" viewBox="0 0 25 25" fill="none" xmlns="http://www.w3.org/2000/svg">
<path d="M17.4997 2.67259C17.3342 2.50666 17.1375 2.37503 16.921 2.28522C16.7044 2.1954 16.4723 2.14917 16.2379 2.14917C16.0035 2.14917 15.7714 2.1954 15.5549 2.28522C15.3384 2.37503 15.1417 2.50666 14.9761 2.67259L6.76096 10.8877C6.59504 11.0533 6.46341 11.25 6.37359 11.4665C6.28378 11.683 6.23755 11.9151 6.23755 12.1495C6.23755 12.384 6.28378 12.6161 6.37359 12.8326C6.46341 13.0491 6.59504 13.2458 6.76096 13.4114L14.9761 21.6265C15.1418 21.7922 15.3385 21.9237 15.555 22.0133C15.7715 22.103 16.0036 22.1492 16.2379 22.1492C16.4723 22.1492 16.7043 22.103 16.9208 22.0133C17.1373 21.9237 17.334 21.7922 17.4997 21.6265C17.6654 21.4608 17.7969 21.2641 17.8866 21.0476C17.9762 20.8311 18.0224 20.599 18.0224 20.3647C18.0224 20.1304 17.9762 19.8983 17.8866 19.6818C17.7969 19.4653 17.6654 19.2686 17.4997 19.1029L10.5553 12.1406L17.4997 5.1962C18.1799 4.49818 18.1799 3.35271 17.4997 2.67259Z" fill="black"/>
</svg>
