<svg width="25" height="25" viewBox="0 0 25 25" fill="none" xmlns="http://www.w3.org/2000/svg">
<path d="M2.94238 21.3638C2.94238 22.4507 3.82422 23.3325 4.91113 23.3325H19.3486C20.4355 23.3325 21.3174 22.4507 21.3174 21.3638V10.2075H2.94238V21.3638ZM16.0674 13.3247C16.0674 13.054 16.2889 12.8325 16.5596 12.8325H18.2002C18.4709 12.8325 18.6924 13.054 18.6924 13.3247V14.9653C18.6924 15.236 18.4709 15.4575 18.2002 15.4575H16.5596C16.2889 15.4575 16.0674 15.236 16.0674 14.9653V13.3247ZM16.0674 18.5747C16.0674 18.304 16.2889 18.0825 16.5596 18.0825H18.2002C18.4709 18.0825 18.6924 18.304 18.6924 18.5747V20.2153C18.6924 20.486 18.4709 20.7075 18.2002 20.7075H16.5596C16.2889 20.7075 16.0674 20.486 16.0674 20.2153V18.5747ZM10.8174 13.3247C10.8174 13.054 11.0389 12.8325 11.3096 12.8325H12.9502C13.2209 12.8325 13.4424 13.054 13.4424 13.3247V14.9653C13.4424 15.236 13.2209 15.4575 12.9502 15.4575H11.3096C11.0389 15.4575 10.8174 15.236 10.8174 14.9653V13.3247ZM10.8174 18.5747C10.8174 18.304 11.0389 18.0825 11.3096 18.0825H12.9502C13.2209 18.0825 13.4424 18.304 13.4424 18.5747V20.2153C13.4424 20.486 13.2209 20.7075 12.9502 20.7075H11.3096C11.0389 20.7075 10.8174 20.486 10.8174 20.2153V18.5747ZM5.56738 13.3247C5.56738 13.054 5.78887 12.8325 6.05957 12.8325H7.7002C7.9709 12.8325 8.19238 13.054 8.19238 13.3247V14.9653C8.19238 15.236 7.9709 15.4575 7.7002 15.4575H6.05957C5.78887 15.4575 5.56738 15.236 5.56738 14.9653V13.3247ZM5.56738 18.5747C5.56738 18.304 5.78887 18.0825 6.05957 18.0825H7.7002C7.9709 18.0825 8.19238 18.304 8.19238 18.5747V20.2153C8.19238 20.486 7.9709 20.7075 7.7002 20.7075H6.05957C5.78887 20.7075 5.56738 20.486 5.56738 20.2153V18.5747ZM19.3486 4.95752H17.3799V2.98877C17.3799 2.62783 17.0846 2.33252 16.7236 2.33252H15.4111C15.0502 2.33252 14.7549 2.62783 14.7549 2.98877V4.95752H9.50488V2.98877C9.50488 2.62783 9.20957 2.33252 8.84863 2.33252H7.53613C7.1752 2.33252 6.87988 2.62783 6.87988 2.98877V4.95752H4.91113C3.82422 4.95752 2.94238 5.83936 2.94238 6.92627V8.89502H21.3174V6.92627C21.3174 5.83936 20.4355 4.95752 19.3486 4.95752Z" fill="currentColor"/>
</svg>