<svg width="24" height="25" viewBox="0 0 24 25" fill="none" xmlns="http://www.w3.org/2000/svg">
<path d="M15.6667 13.5917C15.6667 14.5641 15.2804 15.4968 14.5927 16.1844C13.9051 16.872 12.9725 17.2583 12 17.2583C11.0275 17.2583 10.0949 16.872 9.40728 16.1844C8.71964 15.4968 8.33333 14.5641 8.33333 13.5917C8.33333 12.6192 8.71964 11.6866 9.40728 10.9989C10.0949 10.3113 11.0275 9.92501 12 9.92501C12.9725 9.92501 13.9051 10.3113 14.5927 10.9989C15.2804 11.6866 15.6667 12.6192 15.6667 13.5917ZM7.006 4.11334C7.23424 3.65617 7.58533 3.27163 8.01991 3.00285C8.45449 2.73407 8.95536 2.59169 9.46633 2.59167H14.5337C15.0446 2.59169 15.5455 2.73407 15.9801 3.00285C16.4147 3.27163 16.7658 3.65617 16.994 4.11334L18.0665 6.25834H19.3333C20.3058 6.25834 21.2384 6.64465 21.9261 7.33228C22.6137 8.01992 23 8.95255 23 9.92501V19.0917C23 20.0641 22.6137 20.9968 21.9261 21.6844C21.2384 22.372 20.3058 22.7583 19.3333 22.7583H4.66667C3.69421 22.7583 2.76157 22.372 2.07394 21.6844C1.38631 20.9968 1 20.0641 1 19.0917V9.92501C1 8.95255 1.38631 8.01992 2.07394 7.33228C2.76157 6.64465 3.69421 6.25834 4.66667 6.25834H5.9335L7.006 4.11334ZM17.5 13.5917C17.5 12.133 16.9205 10.734 15.8891 9.70259C14.8576 8.67114 13.4587 8.09167 12 8.09167C10.5413 8.09167 9.14236 8.67114 8.11091 9.70259C7.07946 10.734 6.5 12.133 6.5 13.5917C6.5 15.0504 7.07946 16.4493 8.11091 17.4808C9.14236 18.5122 10.5413 19.0917 12 19.0917C13.4587 19.0917 14.8576 18.5122 15.8891 17.4808C16.9205 16.4493 17.5 15.0504 17.5 13.5917Z" fill="black"/>
</svg>
