<svg width="21" height="21" viewBox="0 0 21 21" fill="none" xmlns="http://www.w3.org/2000/svg">
<path d="M4.32858 12.8221H12.3286V10.8221H4.32858V12.8221ZM4.32858 9.82214H16.3286V7.82214H4.32858V9.82214ZM4.32858 6.82214H16.3286V4.82214H4.32858V6.82214ZM0.328583 20.8221V2.82214C0.328583 2.27214 0.524416 1.80131 0.916083 1.40964C1.30775 1.01798 1.77858 0.822144 2.32858 0.822144H18.3286C18.8786 0.822144 19.3494 1.01798 19.7411 1.40964C20.1327 1.80131 20.3286 2.27214 20.3286 2.82214V14.8221C20.3286 15.3721 20.1327 15.843 19.7411 16.2346C19.3494 16.6263 18.8786 16.8221 18.3286 16.8221H4.32858L0.328583 20.8221ZM3.47858 14.8221H18.3286V2.82214H2.32858V15.9471L3.47858 14.8221Z" fill="#1F1F1F"/>
</svg>
