<svg width="21" height="20" viewBox="0 0 21 20" fill="none" xmlns="http://www.w3.org/2000/svg">
<path fill-rule="evenodd" clip-rule="evenodd" d="M11.2169 19.388L11.7589 18.472C12.1789 17.762 12.3889 17.406 12.7269 17.21C13.0649 17.013 13.4899 17.006 14.3399 16.991C15.5959 16.97 16.3829 16.893 17.0429 16.619C17.6495 16.3677 18.2007 15.9994 18.665 15.5351C19.1293 15.0708 19.4976 14.5196 19.7489 13.913C20.1299 12.995 20.1299 11.83 20.1299 9.5V8.5C20.1299 5.227 20.1299 3.59 19.3929 2.388C18.9808 1.7152 18.4154 1.14945 17.7429 0.737C16.5399 0 14.9029 0 11.6299 0H8.62988C5.35688 0 3.71988 0 2.51788 0.737C1.84508 1.14904 1.27933 1.71445 0.866883 2.387C0.129883 3.59 0.129883 5.228 0.129883 8.5V9.5C0.129883 11.83 0.129883 12.995 0.509883 13.913C0.761271 14.5197 1.12973 15.071 1.5942 15.5353C2.05867 15.9996 2.61006 16.3678 3.21688 16.619C3.87688 16.893 4.66388 16.969 5.91988 16.991C6.76988 17.006 7.19488 17.013 7.53288 17.21C7.86988 17.406 8.08088 17.761 8.50088 18.472L9.04288 19.388C9.52588 20.204 10.7329 20.204 11.2169 19.388ZM14.1299 10C14.3951 10 14.6495 9.89464 14.837 9.70711C15.0245 9.51957 15.1299 9.26522 15.1299 9C15.1299 8.73478 15.0245 8.48043 14.837 8.29289C14.6495 8.10536 14.3951 8 14.1299 8C13.8647 8 13.6103 8.10536 13.4228 8.29289C13.2352 8.48043 13.1299 8.73478 13.1299 9C13.1299 9.26522 13.2352 9.51957 13.4228 9.70711C13.6103 9.89464 13.8647 10 14.1299 10ZM11.1299 9C11.1299 9.26522 11.0245 9.51957 10.837 9.70711C10.6495 9.89464 10.3951 10 10.1299 10C9.86467 10 9.61031 9.89464 9.42278 9.70711C9.23524 9.51957 9.12988 9.26522 9.12988 9C9.12988 8.73478 9.23524 8.48043 9.42278 8.29289C9.61031 8.10536 9.86467 8 10.1299 8C10.3951 8 10.6495 8.10536 10.837 8.29289C11.0245 8.48043 11.1299 8.73478 11.1299 9ZM6.12988 10C6.3951 10 6.64945 9.89464 6.83699 9.70711C7.02453 9.51957 7.12988 9.26522 7.12988 9C7.12988 8.73478 7.02453 8.48043 6.83699 8.29289C6.64945 8.10536 6.3951 8 6.12988 8C5.86467 8 5.61031 8.10536 5.42278 8.29289C5.23524 8.48043 5.12988 8.73478 5.12988 9C5.12988 9.26522 5.23524 9.51957 5.42278 9.70711C5.61031 9.89464 5.86467 10 6.12988 10Z" fill="black"/>
</svg>
