<svg width="21" height="20" viewBox="0 0 21 20" fill="none" xmlns="http://www.w3.org/2000/svg">
<path d="M11.741 19.0882L12.2452 18.2362L11.0452 17.5255L10.5401 18.3776L11.741 19.0882ZM8.01453 18.2362L8.51872 19.0882L9.71872 18.3776L9.21546 17.5255L8.01453 18.2362ZM10.5401 18.3776C10.4966 18.4471 10.4362 18.5045 10.3644 18.5443C10.2926 18.5841 10.2119 18.605 10.1299 18.605C10.0478 18.605 9.96712 18.5841 9.89536 18.5443C9.82359 18.5045 9.76313 18.4471 9.71965 18.3776L8.51872 19.0882C9.23779 20.3041 11.021 20.3041 11.741 19.0882L10.5401 18.3776ZM8.73453 1.39523H11.5252V-0.000121683H8.73453V1.39523ZM18.7345 8.60453V9.53476H20.1299V8.60453H18.7345ZM1.52523 9.53476V8.60453H0.129883V9.53476H1.52523ZM0.129883 9.53476C0.129883 10.6092 0.129883 11.4492 0.176394 12.1273C0.222906 12.811 0.31872 13.3803 0.537325 13.9069L1.82663 13.3729C1.68988 13.0455 1.60988 12.6455 1.56802 12.0324C1.52523 11.4129 1.52523 10.6278 1.52523 9.53476H0.129883ZM6.2257 15.8064C5.05732 15.7859 4.44523 15.7115 3.96523 15.5124L3.43221 16.8017C4.18105 17.1124 5.03314 17.1822 6.20151 17.2027L6.2257 15.8064ZM0.537325 13.9069C0.806129 14.5558 1.20013 15.1455 1.69684 15.6422C2.19355 16.1389 2.78323 16.5329 3.43221 16.8017L3.96523 15.5124C2.99656 15.1112 2.22788 14.3416 1.82663 13.3729L0.537325 13.9069ZM18.7345 9.53476C18.7345 10.6278 18.7345 11.4129 18.6917 12.0324C18.6499 12.6455 18.5699 13.0455 18.4341 13.3729L19.7224 13.9069C19.941 13.3803 20.0369 12.811 20.0843 12.1273C20.1308 11.4492 20.1299 10.6092 20.1299 9.53476H18.7345ZM14.0583 17.2008C15.2266 17.1813 16.0787 17.1124 16.8276 16.8017L16.2936 15.5124C15.8145 15.7115 15.2024 15.7859 14.035 15.8064L14.0583 17.2008ZM18.4341 13.3729C18.0328 14.3416 17.2632 15.1112 16.2945 15.5124L16.8276 16.8017C17.4765 16.5329 18.0662 16.1389 18.5629 15.6422C19.0596 15.1455 19.4536 14.5558 19.7224 13.9069L18.4341 13.3729ZM11.5252 1.39523C13.061 1.39523 14.1643 1.39523 15.0248 1.47802C15.875 1.55895 16.4155 1.71337 16.8471 1.97755L17.5755 0.787785C16.888 0.36732 16.1085 0.179413 15.1569 0.0882504C14.2155 -0.00105189 13.0341 -0.000121683 11.5252 -0.000121683V1.39523ZM20.1299 8.60453C20.1299 7.09569 20.1299 5.91523 20.0406 4.9729C19.9503 4.02127 19.7624 3.24081 19.342 2.5543L18.1513 3.28267C18.4164 3.7143 18.5708 4.25476 18.6517 5.10592C18.7336 5.96546 18.7345 7.06871 18.7345 8.60453H20.1299ZM16.8462 1.97755C17.3784 2.30341 17.826 2.75064 18.1522 3.28267L19.342 2.5543C18.9008 1.83428 18.2955 1.22893 17.5755 0.787785L16.8462 1.97755ZM8.73453 -0.000121683C7.2257 -0.000121683 6.04523 -0.000121654 5.10291 0.0882504C4.15128 0.179413 3.37081 0.36732 2.6843 0.787785L3.41267 1.97848C3.8443 1.71337 4.38477 1.55895 5.23593 1.47802C6.09546 1.39616 7.19872 1.39523 8.73453 1.39523V-0.000121683ZM1.52523 8.60453C1.52523 7.06871 1.52523 5.96546 1.60802 5.10499C1.68895 4.25476 1.84337 3.7143 2.10756 3.28267L0.91779 2.55523C0.497325 3.24174 0.309418 4.02127 0.218255 4.9729C0.129883 5.91616 0.129883 7.09569 0.129883 8.60453H1.52523ZM2.6843 0.787785C1.96428 1.22893 1.35893 1.83521 0.91779 2.55523L2.10849 3.28267C2.4342 2.75086 2.88109 2.30364 3.41267 1.97755L2.6843 0.787785ZM9.21453 17.5255C9.02663 17.2064 8.86104 16.9245 8.69918 16.7031C8.53334 16.4598 8.31694 16.2552 8.06477 16.1031L7.36337 17.3096C7.40709 17.3357 7.46756 17.3822 7.57174 17.5255C7.6843 17.6799 7.81174 17.8938 8.01453 18.2362L9.21453 17.5255ZM6.20151 17.2008C6.61081 17.2082 6.86849 17.2138 7.0657 17.2352C7.24988 17.2557 7.32151 17.2855 7.36337 17.3096L8.06477 16.1031C7.80482 15.9576 7.51624 15.8707 7.21918 15.8482C6.94198 15.8176 6.60895 15.8129 6.2257 15.8064L6.20151 17.2008ZM12.2452 18.2362C12.448 17.8948 12.5755 17.6799 12.688 17.5255C12.7922 17.3822 12.8527 17.3357 12.8964 17.3096L12.195 16.1031C11.9252 16.2613 11.7299 16.4706 11.5606 16.7031C11.3996 16.9245 11.2331 17.2055 11.0443 17.5255L12.2452 18.2362ZM14.035 15.8064C13.6517 15.8129 13.3178 15.8176 13.0406 15.8482C12.7513 15.8808 12.4676 15.945 12.195 16.1031L12.8964 17.3096C12.9383 17.2855 13.0099 17.2557 13.1941 17.2352C13.3913 17.2138 13.6499 17.2073 14.0592 17.2008L14.035 15.8064Z" fill="black"/>
<path d="M6.40894 9.0697H6.41731M10.1215 9.0697H10.1299M13.8424 9.0697H13.8508" stroke="black" stroke-width="1.5" stroke-linecap="round" stroke-linejoin="round"/>
</svg>
