<svg width="25" height="24" viewBox="0 0 25 24" fill="none" xmlns="http://www.w3.org/2000/svg">
<path d="M10.1299 5H14.1299C14.1299 4.46957 13.9192 3.96086 13.5441 3.58579C13.169 3.21071 12.6603 3 12.1299 3C11.5995 3 11.0907 3.21071 10.7157 3.58579C10.3406 3.96086 10.1299 4.46957 10.1299 5ZM8.62988 5C8.62988 4.54037 8.72041 4.08525 8.8963 3.66061C9.0722 3.23597 9.33 2.85013 9.65501 2.52513C9.98001 2.20012 10.3659 1.94231 10.7905 1.76642C11.2151 1.59053 11.6703 1.5 12.1299 1.5C12.5895 1.5 13.0446 1.59053 13.4693 1.76642C13.8939 1.94231 14.2798 2.20012 14.6048 2.52513C14.9298 2.85013 15.1876 3.23597 15.3635 3.66061C15.5394 4.08525 15.6299 4.54037 15.6299 5H21.3799C21.5788 5 21.7696 5.07902 21.9102 5.21967C22.0509 5.36032 22.1299 5.55109 22.1299 5.75C22.1299 5.94891 22.0509 6.13968 21.9102 6.28033C21.7696 6.42098 21.5788 6.5 21.3799 6.5H20.0599L18.8899 18.611C18.8001 19.539 18.3679 20.4002 17.6776 21.0268C16.9872 21.6534 16.0882 22.0004 15.1559 22H9.10388C8.17175 22.0001 7.27298 21.653 6.58283 21.0265C5.89268 20.3999 5.46062 19.5388 5.37088 18.611L4.19988 6.5H2.87988C2.68097 6.5 2.4902 6.42098 2.34955 6.28033C2.2089 6.13968 2.12988 5.94891 2.12988 5.75C2.12988 5.55109 2.2089 5.36032 2.34955 5.21967C2.4902 5.07902 2.68097 5 2.87988 5H8.62988ZM10.6299 9.75C10.6299 9.55109 10.5509 9.36032 10.4102 9.21967C10.2696 9.07902 10.0788 9 9.87988 9C9.68097 9 9.49021 9.07902 9.34955 9.21967C9.2089 9.36032 9.12988 9.55109 9.12988 9.75V17.25C9.12988 17.4489 9.2089 17.6397 9.34955 17.7803C9.49021 17.921 9.68097 18 9.87988 18C10.0788 18 10.2696 17.921 10.4102 17.7803C10.5509 17.6397 10.6299 17.4489 10.6299 17.25V9.75ZM14.3799 9C14.181 9 13.9902 9.07902 13.8496 9.21967C13.7089 9.36032 13.6299 9.55109 13.6299 9.75V17.25C13.6299 17.4489 13.7089 17.6397 13.8496 17.7803C13.9902 17.921 14.181 18 14.3799 18C14.5788 18 14.7696 17.921 14.9102 17.7803C15.0509 17.6397 15.1299 17.4489 15.1299 17.25V9.75C15.1299 9.55109 15.0509 9.36032 14.9102 9.21967C14.7696 9.07902 14.5788 9 14.3799 9Z" fill="black"/>
</svg>
