<svg width="25" height="24" viewBox="0 0 25 24" fill="none" xmlns="http://www.w3.org/2000/svg">
<path d="M16.6634 2.69996C16.9745 2.37891 17.3464 2.12297 17.7574 1.94703C18.1683 1.77109 18.6102 1.67867 19.0572 1.67515C19.5043 1.67164 19.9476 1.7571 20.3612 1.92655C20.7749 2.096 21.1508 2.34607 21.4669 2.66218C21.783 2.9783 22.0331 3.35414 22.2025 3.76783C22.372 4.18153 22.4574 4.6248 22.4539 5.07184C22.4504 5.51888 22.358 5.96075 22.1821 6.37173C22.0061 6.7827 21.7502 7.15457 21.4291 7.46567L20.1091 8.78567L15.3434 4.01996L16.6634 2.69996ZM14.4348 4.92853L3.98884 15.3745C3.6117 15.7517 3.33741 16.2197 3.19341 16.734L1.86741 21.4697C1.83677 21.5795 1.83587 21.6954 1.8648 21.8056C1.89373 21.9159 1.95145 22.0165 2.03204 22.097C2.11263 22.1776 2.2132 22.2354 2.32344 22.2643C2.43368 22.2932 2.54963 22.2923 2.65941 22.2617L7.39427 20.9357C7.9089 20.7927 8.37761 20.5186 8.75455 20.1402L19.2014 9.6951L14.4348 4.92853Z" fill="black"/>
</svg>
