<svg width="16" height="16" viewBox="0 0 16 16" fill="none" xmlns="http://www.w3.org/2000/svg">
<path d="M12.0001 9.14258C12.4547 9.14258 12.8907 9.32319 13.2122 9.64468C13.5337 9.96617 13.7143 10.4022 13.7143 10.8569V11.2654C13.7143 13.3094 11.3086 14.8569 8.00005 14.8569C4.69148 14.8569 2.28577 13.39 2.28577 11.2654V10.8569C2.28577 10.4022 2.46638 9.96617 2.78787 9.64468C3.10936 9.32319 3.5454 9.14258 4.00005 9.14258H12.0001ZM8.00005 1.14258C8.4503 1.14258 8.89614 1.23126 9.31211 1.40356C9.72808 1.57586 10.106 1.82841 10.4244 2.14678C10.7428 2.46516 10.9953 2.84312 11.1676 3.25909C11.3399 3.67507 11.4286 4.1209 11.4286 4.57115C11.4286 5.0214 11.3399 5.46723 11.1676 5.88321C10.9953 6.29918 10.7428 6.67714 10.4244 6.99552C10.106 7.31389 9.72808 7.56643 9.31211 7.73874C8.89614 7.91104 8.4503 7.99972 8.00005 7.99972C7.09074 7.99972 6.21867 7.6385 5.57569 6.99552C4.9327 6.35253 4.57148 5.48046 4.57148 4.57115C4.57148 3.66184 4.9327 2.78977 5.57569 2.14678C6.21867 1.5038 7.09074 1.14258 8.00005 1.14258Z" fill="#D6D6D6"/>
</svg>
