<svg width="25" height="24" viewBox="0 0 25 24" fill="none" xmlns="http://www.w3.org/2000/svg">
<g clip-path="url(#clip0_447_236)">
<path d="M24.1299 4.5H7.62988M4.62988 4.5H0.129883M24.1299 19.5H7.62988M4.62988 19.5H0.129883M16.6299 12H0.129883M24.1299 12H19.6299M6.12988 1.5C6.52771 1.5 6.90924 1.65804 7.19054 1.93934C7.47185 2.22064 7.62988 2.60218 7.62988 3V6C7.62988 6.39782 7.47185 6.77936 7.19054 7.06066C6.90924 7.34196 6.52771 7.5 6.12988 7.5C5.73206 7.5 5.35053 7.34196 5.06922 7.06066C4.78792 6.77936 4.62988 6.39782 4.62988 6V3C4.62988 2.60218 4.78792 2.22064 5.06922 1.93934C5.35053 1.65804 5.73206 1.5 6.12988 1.5ZM6.12988 16.5C6.52771 16.5 6.90924 16.658 7.19054 16.9393C7.47185 17.2206 7.62988 17.6022 7.62988 18V21C7.62988 21.3978 7.47185 21.7794 7.19054 22.0607C6.90924 22.342 6.52771 22.5 6.12988 22.5C5.73206 22.5 5.35053 22.342 5.06922 22.0607C4.78792 21.7794 4.62988 21.3978 4.62988 21V18C4.62988 17.6022 4.78792 17.2206 5.06922 16.9393C5.35053 16.658 5.73206 16.5 6.12988 16.5ZM18.1299 9C18.5277 9 18.9092 9.15804 19.1905 9.43934C19.4718 9.72064 19.6299 10.1022 19.6299 10.5V13.5C19.6299 13.8978 19.4718 14.2794 19.1905 14.5607C18.9092 14.842 18.5277 15 18.1299 15C17.7321 15 17.3505 14.842 17.0692 14.5607C16.7879 14.2794 16.6299 13.8978 16.6299 13.5V10.5C16.6299 10.1022 16.7879 9.72064 17.0692 9.43934C17.3505 9.15804 17.7321 9 18.1299 9Z" stroke="black" stroke-width="1.4" stroke-linecap="round" stroke-linejoin="round"/>
</g>
<defs>
<clipPath id="clip0_447_236">
<rect width="24" height="24" fill="white" transform="translate(0.129883)"/>
</clipPath>
</defs>
</svg>
