<svg width="25" height="23" viewBox="0 0 25 23" fill="none" xmlns="http://www.w3.org/2000/svg">
<path d="M5.22006 0.572266C5.80469 0.572266 6.85348 0.75297 6.85348 2.1924C6.85348 3.63184 5.81532 4.18546 5.22006 4.18546C4.6248 4.18546 3.71153 3.62032 3.71153 2.1924C3.71153 0.764485 4.71515 0.572266 5.22006 0.572266ZM2.00901 2.37931C2.59365 2.37931 3.64244 2.55913 3.64244 3.99856C3.64244 5.43799 2.60427 5.99162 2.00901 5.99162C1.41375 5.99162 0.500488 5.42736 0.500488 3.99856C0.500488 2.56976 1.50411 2.37931 2.00901 2.37931ZM10.7289 2.1924C10.7289 0.75297 9.68008 0.573151 9.09545 0.573151C8.59054 0.573151 7.58693 0.763599 7.58693 2.1924C7.58693 3.62121 8.50019 4.18546 9.09545 4.18546C9.69071 4.18546 10.7289 3.63184 10.7289 2.1924ZM12.2374 2.37931C12.822 2.37931 13.8708 2.55913 13.8708 3.99856C13.8708 5.43799 12.8327 5.99162 12.2374 5.99162C11.6421 5.99162 10.7289 5.42736 10.7289 3.99856C10.7289 2.56976 11.7325 2.37931 12.2374 2.37931ZM11.6005 9.43829C11.6005 6.84997 9.92634 4.60799 7.18566 4.60799C4.44498 4.60799 2.79827 6.79416 2.79827 9.43829C2.79827 11.6386 5.42113 11.6386 7.17946 11.6386H7.18566C9.13709 11.6386 11.6005 11.5695 11.6005 9.43829ZM12.6387 13.0506C13.2233 13.0506 14.2721 13.2304 14.2721 14.6699C14.2721 16.1093 13.2339 16.6629 12.6387 16.6629C12.0434 16.6629 11.1301 16.0978 11.1301 14.6699C11.1301 13.2419 12.1338 13.0506 12.6387 13.0506ZM17.4831 12.8637C17.4831 11.4243 16.4343 11.2444 15.8497 11.2444C15.3448 11.2444 14.3412 11.4349 14.3412 12.8637C14.3412 14.2925 15.2545 14.8568 15.8497 14.8568C16.445 14.8568 17.4831 14.3031 17.4831 12.8637ZM19.7251 11.2444C20.3097 11.2444 21.3585 11.4243 21.3585 12.8637C21.3585 14.3031 20.3204 14.8568 19.7251 14.8568C19.1299 14.8568 18.2166 14.2916 18.2166 12.8637C18.2166 11.4358 19.2202 11.2444 19.7251 11.2444ZM24.5005 14.6699C24.5005 13.2304 23.4517 13.0506 22.8671 13.0506C22.3622 13.0506 21.3585 13.241 21.3585 14.6699C21.3585 16.0987 22.2718 16.6629 22.8671 16.6629C23.4623 16.6629 24.5005 16.1093 24.5005 14.6699ZM17.8153 15.2793C20.556 15.2793 22.2302 17.5204 22.2302 20.1096C22.2302 22.2408 19.7676 22.3099 17.8153 22.3099H17.8082C16.0508 22.3099 13.4279 22.3099 13.4279 20.1096C13.4279 17.4655 15.0755 15.2793 17.8153 15.2793Z" fill="#D6D6D6"/>
</svg>
