<svg width="25" height="25" viewBox="0 0 25 25" fill="none" xmlns="http://www.w3.org/2000/svg">
<path d="M4.84945 1.67871C5.43408 1.67871 6.48288 1.85942 6.48288 3.29885C6.48288 4.73828 5.44471 5.29191 4.84945 5.29191C4.25419 5.29191 3.34093 4.72677 3.34093 3.29885C3.34093 1.87093 4.34454 1.67871 4.84945 1.67871ZM1.63841 3.48575C2.22304 3.48575 3.27183 3.66557 3.27183 5.105C3.27183 6.54444 2.23367 7.09807 1.63841 7.09807C1.04315 7.09807 0.129883 6.53381 0.129883 5.105C0.129883 3.6762 1.1335 3.48575 1.63841 3.48575ZM10.3583 3.29885C10.3583 1.85942 9.30948 1.6796 8.72485 1.6796C8.21994 1.6796 7.21632 1.87004 7.21632 3.29885C7.21632 4.72765 8.12959 5.29191 8.72485 5.29191C9.32011 5.29191 10.3583 4.73828 10.3583 3.29885ZM11.8668 3.48575C12.4514 3.48575 13.5002 3.66557 13.5002 5.105C13.5002 6.54444 12.4621 7.09807 11.8668 7.09807C11.2715 7.09807 10.3583 6.53381 10.3583 5.105C10.3583 3.6762 11.3619 3.48575 11.8668 3.48575ZM11.2299 10.5447C11.2299 7.95641 9.55573 5.71444 6.81505 5.71444C4.07437 5.71444 2.42766 7.9006 2.42766 10.5447C2.42766 12.7451 5.05053 12.7451 6.80885 12.7451H6.81505C8.76648 12.7451 11.2299 12.676 11.2299 10.5447ZM12.2681 14.157C12.8527 14.157 13.9015 14.3369 13.9015 15.7763C13.9015 17.2157 12.8633 17.7694 12.2681 17.7694C11.6728 17.7694 10.7595 17.2042 10.7595 15.7763C10.7595 14.3484 11.7632 14.157 12.2681 14.157ZM17.1125 13.9701C17.1125 12.5307 16.0637 12.3509 15.4791 12.3509C14.9742 12.3509 13.9706 12.5413 13.9706 13.9701C13.9706 15.3989 14.8838 15.9632 15.4791 15.9632C16.0744 15.9632 17.1125 15.4096 17.1125 13.9701ZM19.3545 12.3509C19.9391 12.3509 20.9879 12.5307 20.9879 13.9701C20.9879 15.4096 19.9498 15.9632 19.3545 15.9632C18.7592 15.9632 17.846 15.3981 17.846 13.9701C17.846 12.5422 18.8496 12.3509 19.3545 12.3509ZM24.1299 15.7763C24.1299 14.3369 23.0811 14.157 22.4965 14.157C21.9915 14.157 20.9879 14.3475 20.9879 15.7763C20.9879 17.2051 21.9012 17.7694 22.4965 17.7694C23.0917 17.7694 24.1299 17.2157 24.1299 15.7763ZM17.4447 16.3857C20.1854 16.3857 21.8596 18.6268 21.8596 21.216C21.8596 23.3473 19.397 23.4164 17.4447 23.4164H17.4376C15.6802 23.4164 13.0573 23.4164 13.0573 21.216C13.0573 18.5719 14.7049 16.3857 17.4447 16.3857Z" fill="black"/>
</svg>
