<svg width="22" height="19" viewBox="0 0 22 19" fill="none" xmlns="http://www.w3.org/2000/svg">
<path d="M11 8C12.7239 8 14.3777 8.68433 15.5967 9.90332C16.8157 11.1223 17.5 12.7761 17.5 14.5C17.5 15.6607 16.8935 16.5446 16.0215 17.1279L16.0205 17.1289C15.1559 17.7085 14.0225 18 12.9219 18H9.07812C8.04638 18 6.98542 17.7441 6.14355 17.2344L5.97852 17.1289L5.81836 17.0156C5.0336 16.4335 4.5 15.5877 4.5 14.5C4.5 12.7761 5.18433 11.1223 6.40332 9.90332C7.62231 8.68433 9.27609 8 11 8ZM2.5 4C3.63031 4 4.5 5.03369 4.5 6.25C4.5 7.46631 3.63031 8.5 2.5 8.5C1.36969 8.5 0.5 7.46631 0.5 6.25C0.5 5.03369 1.36969 4 2.5 4ZM19.5 4C20.6303 4 21.5 5.03369 21.5 6.25C21.5 7.46631 20.6303 8.5 19.5 8.5C18.3697 8.5 17.5 7.46631 17.5 6.25C17.5 5.03369 18.3697 4 19.5 4ZM7.75 0.5C8.88031 0.5 9.75 1.53369 9.75 2.75C9.75 3.96631 8.88031 5 7.75 5C6.61969 5 5.75 3.96631 5.75 2.75C5.75 1.53369 6.61969 0.5 7.75 0.5ZM14.25 0.5C15.3803 0.5 16.25 1.53369 16.25 2.75C16.25 3.96631 15.3803 5 14.25 5C13.1197 5 12.25 3.96631 12.25 2.75C12.25 1.53369 13.1197 0.5 14.25 0.5Z" fill="#FFDB00" stroke="#424242"/>
</svg>
