<svg width="21" height="19" viewBox="0 0 21 19" fill="none" xmlns="http://www.w3.org/2000/svg">
<path fill-rule="evenodd" clip-rule="evenodd" d="M8.80649 0.94544C9.18716 0.656446 9.65196 0.5 10.1299 0.5C10.6078 0.5 11.0726 0.656446 11.4533 0.94544L12.4163 1.67645C15.2453 3.82562 17.6688 6.46158 19.5733 9.46081L19.8826 9.94669C20.0227 10.1673 20.1009 10.4215 20.1092 10.6826C20.1174 10.9438 20.0554 11.2024 19.9296 11.4314C19.8037 11.6605 19.6187 11.8515 19.3938 11.9845C19.1689 12.1176 18.9124 12.1878 18.6511 12.1879H17.6429C17.7012 13.5303 17.6283 14.8741 17.424 16.2034C17.3256 16.8432 17.0014 17.4266 16.5099 17.8479C16.0185 18.2692 15.3924 18.5005 14.7451 18.5H11.9538V13.6908C11.9538 13.207 11.7616 12.7431 11.4196 12.4011C11.0775 12.059 10.6136 11.8669 10.1299 11.8669C9.64618 11.8669 9.18226 12.059 8.84022 12.4011C8.49817 12.7431 8.30601 13.207 8.30601 13.6908V18.5H5.51473C4.868 18.499 4.24288 18.2671 3.75199 17.846C3.2611 17.4249 2.93671 16.8424 2.83727 16.2034C2.63299 14.8741 2.56004 13.5288 2.6184 12.1879H1.6087C1.34739 12.1878 1.09089 12.1176 0.865996 11.9845C0.641104 11.8515 0.456074 11.6605 0.330236 11.4314C0.204398 11.2024 0.14237 10.9438 0.150632 10.6826C0.158894 10.4215 0.237144 10.1673 0.377206 9.94669L0.685078 9.45935C2.59007 6.46052 5.01408 3.82505 7.84348 1.67645L8.80649 0.94544Z" fill="black"/>
</svg>
