<svg width="22" height="21" viewBox="0 0 22 21" fill="none" xmlns="http://www.w3.org/2000/svg">
<path d="M6.10784 19.5H16.152C17.2158 19.5 18.1208 18.7236 18.2811 17.6741C18.5384 16.0038 18.5987 14.3112 18.459 12.6298H20.4024C20.5446 12.6298 20.6841 12.5915 20.8065 12.5192C20.9288 12.4468 21.0295 12.3428 21.098 12.2182C21.1664 12.0936 21.2002 11.9529 21.1957 11.8108C21.1912 11.6687 21.1486 11.5304 21.0724 11.4104L20.7358 10.8817C18.7142 7.6976 16.1416 4.89913 13.1384 2.61742L12.0905 1.82354C11.8142 1.61364 11.4768 1.5 11.1299 1.5C10.783 1.5 10.4456 1.61364 10.1693 1.82354L9.12139 2.61742C6.1181 4.89961 3.54543 7.69862 1.524 10.8833L1.18739 11.412C1.11119 11.532 1.06861 11.6703 1.06412 11.8124C1.05962 11.9545 1.09337 12.0952 1.16184 12.2198C1.2303 12.3444 1.33098 12.4483 1.45333 12.5207C1.57569 12.5931 1.71525 12.6313 1.85742 12.6314H3.80083C3.66284 14.3135 3.72252 16.0059 3.97866 17.6741C4.14061 18.7252 5.04563 19.5 6.10784 19.5Z" stroke="black" stroke-width="1.3" stroke-linecap="round" stroke-linejoin="round"/>
<path d="M11.1299 12.0249C12.5923 12.0249 13.7783 13.2094 13.7783 14.6717V19.4985H8.48315V14.6717C8.48315 13.211 9.66762 12.0249 11.1299 12.0249Z" stroke="black" stroke-width="1.3" stroke-linecap="round" stroke-linejoin="round"/>
</svg>
