<svg width="25" height="25" viewBox="0 0 25 25" fill="none" xmlns="http://www.w3.org/2000/svg">
<path d="M13.8639 22.6485C16.4784 20.3475 21.1299 15.6465 21.1299 11.3325C21.1299 8.94557 20.1817 6.65639 18.4938 4.96856C16.806 3.28073 14.5168 2.33252 12.1299 2.33252C9.74293 2.33252 7.45375 3.28073 5.76592 4.96856C4.07809 6.65639 3.12988 8.94557 3.12988 11.3325C3.12988 15.6465 7.77988 20.3475 10.3959 22.6485C10.8731 23.0744 11.4903 23.3098 12.1299 23.3098C12.7695 23.3098 13.3867 23.0744 13.8639 22.6485ZM9.12988 11.3325C9.12988 10.5369 9.44595 9.77381 10.0086 9.2112C10.5712 8.64859 11.3342 8.33252 12.1299 8.33252C12.9255 8.33252 13.6886 8.64859 14.2512 9.2112C14.8138 9.77381 15.1299 10.5369 15.1299 11.3325C15.1299 12.1282 14.8138 12.8912 14.2512 13.4538C13.6886 14.0164 12.9255 14.3325 12.1299 14.3325C11.3342 14.3325 10.5712 14.0164 10.0086 13.4538C9.44595 12.8912 9.12988 12.1282 9.12988 11.3325Z" fill="currentColor"/>
</svg>
