<svg width="25" height="25" viewBox="0 0 25 25" fill="none" xmlns="http://www.w3.org/2000/svg">
<path d="M5.33514 12.1997C4.63514 12.1997 4.04348 11.958 3.56014 11.4747C3.07681 10.9914 2.83514 10.3997 2.83514 9.69971C2.83514 8.99971 3.07681 8.40804 3.56014 7.92471C4.04348 7.44137 4.63514 7.19971 5.33514 7.19971C6.03514 7.19971 6.62681 7.44137 7.11014 7.92471C7.59348 8.40804 7.83514 8.99971 7.83514 9.69971C7.83514 10.3997 7.59348 10.9914 7.11014 11.4747C6.62681 11.958 6.03514 12.1997 5.33514 12.1997ZM9.83514 8.19971C9.13514 8.19971 8.54348 7.95804 8.06014 7.47471C7.57681 6.99137 7.33514 6.39971 7.33514 5.69971C7.33514 4.99971 7.57681 4.40804 8.06014 3.92471C8.54348 3.44137 9.13514 3.19971 9.83514 3.19971C10.5351 3.19971 11.1268 3.44137 11.6101 3.92471C12.0935 4.40804 12.3351 4.99971 12.3351 5.69971C12.3351 6.39971 12.0935 6.99137 11.6101 7.47471C11.1268 7.95804 10.5351 8.19971 9.83514 8.19971ZM15.8351 8.19971C15.1351 8.19971 14.5435 7.95804 14.0601 7.47471C13.5768 6.99137 13.3351 6.39971 13.3351 5.69971C13.3351 4.99971 13.5768 4.40804 14.0601 3.92471C14.5435 3.44137 15.1351 3.19971 15.8351 3.19971C16.5351 3.19971 17.1268 3.44137 17.6101 3.92471C18.0935 4.40804 18.3351 4.99971 18.3351 5.69971C18.3351 6.39971 18.0935 6.99137 17.6101 7.47471C17.1268 7.95804 16.5351 8.19971 15.8351 8.19971ZM20.3351 12.1997C19.6351 12.1997 19.0435 11.958 18.5601 11.4747C18.0768 10.9914 17.8351 10.3997 17.8351 9.69971C17.8351 8.99971 18.0768 8.40804 18.5601 7.92471C19.0435 7.44137 19.6351 7.19971 20.3351 7.19971C21.0351 7.19971 21.6268 7.44137 22.1101 7.92471C22.5935 8.40804 22.8351 8.99971 22.8351 9.69971C22.8351 10.3997 22.5935 10.9914 22.1101 11.4747C21.6268 11.958 21.0351 12.1997 20.3351 12.1997ZM7.48514 22.1997C6.73514 22.1997 6.10598 21.9122 5.59764 21.3372C5.08931 20.7622 4.83514 20.083 4.83514 19.2997C4.83514 18.433 5.13098 17.6747 5.72264 17.0247C6.31431 16.3747 6.90181 15.733 7.48514 15.0997C7.96848 14.583 8.38514 14.0205 8.73514 13.4122C9.08514 12.8039 9.50181 12.233 9.98514 11.6997C10.3518 11.2664 10.7768 10.908 11.2601 10.6247C11.7435 10.3414 12.2685 10.1997 12.8351 10.1997C13.4018 10.1997 13.9268 10.333 14.4101 10.5997C14.8935 10.8664 15.3185 11.2164 15.6851 11.6497C16.1518 12.183 16.5643 12.758 16.9226 13.3747C17.281 13.9914 17.7018 14.5664 18.1851 15.0997C18.7685 15.733 19.356 16.3747 19.9476 17.0247C20.5393 17.6747 20.8351 18.433 20.8351 19.2997C20.8351 20.083 20.581 20.7622 20.0726 21.3372C19.5643 21.9122 18.9351 22.1997 18.1851 22.1997C17.2851 22.1997 16.3935 22.1247 15.5101 21.9747C14.6268 21.8247 13.7351 21.7497 12.8351 21.7497C11.9351 21.7497 11.0435 21.8247 10.1601 21.9747C9.27681 22.1247 8.38514 22.1997 7.48514 22.1997Z" fill="#1F1F1F"/>
</svg>
