<svg width="23" height="20" viewBox="0 0 23 20" fill="none" xmlns="http://www.w3.org/2000/svg">
<path d="M5.37988 3.5C5.37988 2.078 6.40788 0.75 7.87988 0.75C9.35188 0.75 10.3799 2.078 10.3799 3.5C10.3799 4.922 9.35188 6.25 7.87988 6.25C6.40788 6.25 5.37988 4.922 5.37988 3.5ZM0.129883 7C0.129883 5.578 1.15788 4.25 2.62988 4.25C4.10188 4.25 5.12988 5.578 5.12988 7C5.12988 8.422 4.10188 9.75 2.62988 9.75C1.15788 9.75 0.129883 8.422 0.129883 7ZM11.1299 8.25C9.27337 8.25 7.49289 8.9875 6.18014 10.3003C4.86738 11.613 4.12988 13.3935 4.12988 15.25C4.12988 16.61 4.84988 17.638 5.82988 18.294C6.79288 18.939 8.02788 19.25 9.20788 19.25H13.0519C14.2319 19.25 15.4669 18.939 16.4289 18.294C17.4099 17.638 18.1299 16.611 18.1299 15.25C18.1299 13.3935 17.3924 11.613 16.0796 10.3003C14.7669 8.9875 12.9864 8.25 11.1299 8.25ZM11.8799 3.5C11.8799 2.078 12.9079 0.75 14.3799 0.75C15.8519 0.75 16.8799 2.078 16.8799 3.5C16.8799 4.922 15.8519 6.25 14.3799 6.25C12.9079 6.25 11.8799 4.922 11.8799 3.5ZM17.1299 7C17.1299 5.578 18.1579 4.25 19.6299 4.25C21.1019 4.25 22.1299 5.578 22.1299 7C22.1299 8.422 21.1019 9.75 19.6299 9.75C18.1579 9.75 17.1299 8.422 17.1299 7Z" fill="black"/>
</svg>
