<svg width="23" height="20" viewBox="0 0 23 20" xmlns="http://www.w3.org/2000/svg">
<path d="M6.87988 3.5C6.87988 2.712 7.41888 2.25 7.87988 2.25C8.34088 2.25 8.87988 2.712 8.87988 3.5C8.87988 4.288 8.34088 4.75 7.87988 4.75C7.41888 4.75 6.87988 4.288 6.87988 3.5ZM7.87988 0.75C6.40788 0.75 5.37988 2.078 5.37988 3.5C5.37988 4.922 6.40788 6.25 7.87988 6.25C9.35188 6.25 10.3799 4.922 10.3799 3.5C10.3799 2.078 9.35188 0.75 7.87988 0.75ZM2.62988 5.75C2.16888 5.75 1.62988 6.212 1.62988 7C1.62988 7.788 2.16888 8.25 2.62988 8.25C3.09088 8.25 3.62988 7.788 3.62988 7C3.62988 6.212 3.09088 5.75 2.62988 5.75ZM0.129883 7C0.129883 5.578 1.15788 4.25 2.62988 4.25C4.10188 4.25 5.12988 5.578 5.12988 7C5.12988 8.422 4.10188 9.75 2.62988 9.75C1.15788 9.75 0.129883 8.422 0.129883 7ZM11.1299 9.75C9.67119 9.75 8.27225 10.3295 7.2408 11.3609C6.20934 12.3924 5.62988 13.7913 5.62988 15.25C5.62988 16.012 6.01188 16.61 6.66588 17.048C7.33588 17.498 8.26588 17.75 9.20788 17.75H13.0519C13.9939 17.75 14.9239 17.497 15.5949 17.048C16.2479 16.61 16.6299 16.012 16.6299 15.25C16.6299 13.7913 16.0504 12.3924 15.019 11.3609C13.9875 10.3295 12.5886 9.75 11.1299 9.75ZM4.12988 15.25C4.12988 14.3307 4.31094 13.4205 4.66273 12.5712C5.01451 11.7219 5.53013 10.9503 6.18014 10.3003C6.83015 9.65024 7.60182 9.13463 8.4511 8.78284C9.30038 8.43106 10.2106 8.25 11.1299 8.25C12.0491 8.25 12.9594 8.43106 13.8087 8.78284C14.6579 9.13463 15.4296 9.65024 16.0796 10.3003C16.7296 10.9503 17.2453 11.7219 17.597 12.5712C17.9488 13.4205 18.1299 14.3307 18.1299 15.25C18.1299 16.61 17.4099 17.638 16.4299 18.294C15.4669 18.939 14.2319 19.25 13.0519 19.25H9.20788C8.02788 19.25 6.79288 18.939 5.83088 18.294C4.84988 17.638 4.12988 16.611 4.12988 15.25ZM14.3799 2.25C13.9189 2.25 13.3799 2.712 13.3799 3.5C13.3799 4.288 13.9189 4.75 14.3799 4.75C14.8409 4.75 15.3799 4.288 15.3799 3.5C15.3799 2.712 14.8409 2.25 14.3799 2.25ZM11.8799 3.5C11.8799 2.078 12.9079 0.75 14.3799 0.75C15.8519 0.75 16.8799 2.078 16.8799 3.5C16.8799 4.922 15.8519 6.25 14.3799 6.25C12.9079 6.25 11.8799 4.922 11.8799 3.5ZM18.6299 7C18.6299 6.212 19.1689 5.75 19.6299 5.75C20.0909 5.75 20.6299 6.212 20.6299 7C20.6299 7.788 20.0909 8.25 19.6299 8.25C19.1689 8.25 18.6299 7.788 18.6299 7ZM19.6299 4.25C18.1579 4.25 17.1299 5.578 17.1299 7C17.1299 8.422 18.1579 9.75 19.6299 9.75C21.1019 9.75 22.1299 8.422 22.1299 7C22.1299 5.578 21.1019 4.25 19.6299 4.25Z" />
</svg>
