<svg width="21" height="21" viewBox="0 0 21 21" fill="none" xmlns="http://www.w3.org/2000/svg">
<path d="M4.45699 15.5646C5.30699 14.9146 6.25699 14.4021 7.30699 14.0271C8.35699 13.6521 9.457 13.4646 10.607 13.4646C11.757 13.4646 12.857 13.6521 13.907 14.0271C14.957 14.4021 15.907 14.9146 16.757 15.5646C17.3403 14.8813 17.7945 14.1063 18.1195 13.2396C18.4445 12.3729 18.607 11.4479 18.607 10.4646C18.607 8.24793 17.8278 6.36043 16.2695 4.8021C14.7112 3.24377 12.8237 2.4646 10.607 2.4646C8.39033 2.4646 6.50283 3.24377 4.94449 4.8021C3.38616 6.36043 2.60699 8.24793 2.60699 10.4646C2.60699 11.4479 2.76949 12.3729 3.09449 13.2396C3.41949 14.1063 3.87366 14.8813 4.45699 15.5646ZM10.607 11.4646C9.62366 11.4646 8.79449 11.1271 8.11949 10.4521C7.44449 9.7771 7.10699 8.94793 7.10699 7.9646C7.10699 6.98127 7.44449 6.1521 8.11949 5.4771C8.79449 4.8021 9.62366 4.4646 10.607 4.4646C11.5903 4.4646 12.4195 4.8021 13.0945 5.4771C13.7695 6.1521 14.107 6.98127 14.107 7.9646C14.107 8.94793 13.7695 9.7771 13.0945 10.4521C12.4195 11.1271 11.5903 11.4646 10.607 11.4646ZM10.607 20.4646C9.22366 20.4646 7.92366 20.2021 6.70699 19.6771C5.49033 19.1521 4.43199 18.4396 3.53199 17.5396C2.63199 16.6396 1.91949 15.5813 1.39449 14.3646C0.869495 13.1479 0.606995 11.8479 0.606995 10.4646C0.606995 9.08127 0.869495 7.78127 1.39449 6.5646C1.91949 5.34793 2.63199 4.2896 3.53199 3.3896C4.43199 2.4896 5.49033 1.7771 6.70699 1.2521C7.92366 0.7271 9.22366 0.4646 10.607 0.4646C11.9903 0.4646 13.2903 0.7271 14.507 1.2521C15.7237 1.7771 16.782 2.4896 17.682 3.3896C18.582 4.2896 19.2945 5.34793 19.8195 6.5646C20.3445 7.78127 20.607 9.08127 20.607 10.4646C20.607 11.8479 20.3445 13.1479 19.8195 14.3646C19.2945 15.5813 18.582 16.6396 17.682 17.5396C16.782 18.4396 15.7237 19.1521 14.507 19.6771C13.2903 20.2021 11.9903 20.4646 10.607 20.4646ZM10.607 18.4646C11.4903 18.4646 12.3237 18.3354 13.107 18.0771C13.8903 17.8188 14.607 17.4479 15.257 16.9646C14.607 16.4813 13.8903 16.1104 13.107 15.8521C12.3237 15.5938 11.4903 15.4646 10.607 15.4646C9.72366 15.4646 8.89033 15.5938 8.10699 15.8521C7.32366 16.1104 6.60699 16.4813 5.95699 16.9646C6.60699 17.4479 7.32366 17.8188 8.10699 18.0771C8.89033 18.3354 9.72366 18.4646 10.607 18.4646ZM10.607 9.4646C11.0403 9.4646 11.3987 9.32293 11.682 9.0396C11.9653 8.75627 12.107 8.39793 12.107 7.9646C12.107 7.53127 11.9653 7.17293 11.682 6.8896C11.3987 6.60627 11.0403 6.4646 10.607 6.4646C10.1737 6.4646 9.81533 6.60627 9.53199 6.8896C9.24866 7.17293 9.10699 7.53127 9.10699 7.9646C9.10699 8.39793 9.24866 8.75627 9.53199 9.0396C9.81533 9.32293 10.1737 9.4646 10.607 9.4646Z" fill="#1F1F1F"/>
</svg>
