<svg width="18" height="22" viewBox="0 0 18 22" fill="none" xmlns="http://www.w3.org/2000/svg">
<path d="M15.1298 12.7143C15.8118 12.7143 16.4658 12.9852 16.9481 13.4674C17.4303 13.9497 17.7012 14.6037 17.7012 15.2857V15.8986C17.7012 18.9646 14.0926 21.2857 9.12978 21.2857C4.16692 21.2857 0.55835 19.0854 0.55835 15.8986V15.2857C0.55835 14.6037 0.829267 13.9497 1.3115 13.4674C1.79374 12.9852 2.44779 12.7143 3.12978 12.7143H15.1298ZM9.12978 0.714294C9.80515 0.714294 10.4739 0.847318 11.0979 1.10577C11.7218 1.36422 12.2888 1.74304 12.7663 2.2206C13.2439 2.69816 13.6227 3.26511 13.8812 3.88907C14.1396 4.51303 14.2726 5.18178 14.2726 5.85715C14.2726 6.53252 14.1396 7.20128 13.8812 7.82524C13.6227 8.4492 13.2439 9.01614 12.7663 9.4937C12.2888 9.97126 11.7218 10.3501 11.0979 10.6085C10.4739 10.867 9.80515 11 9.12978 11C7.76581 11 6.4577 10.4582 5.49323 9.4937C4.52876 8.52923 3.98692 7.22112 3.98692 5.85715C3.98692 4.49318 4.52876 3.18508 5.49323 2.2206C6.4577 1.25613 7.76581 0.714294 9.12978 0.714294Z" fill="black"/>
</svg>
