<svg width="17" height="20" viewBox="0 0 17 20" fill="none" xmlns="http://www.w3.org/2000/svg">
<path d="M13.8848 12C14.4812 12.0005 15.053 12.2378 15.4745 12.6597C15.896 13.0816 16.1328 13.6536 16.1328 14.25V14.825C16.1328 15.719 15.8128 16.584 15.2328 17.263C13.6628 19.096 11.2758 20.001 8.12979 20.001C4.98379 20.001 2.59779 19.096 1.03179 17.261C0.452397 16.5824 0.133996 15.7193 0.133789 14.827V14.249C0.134054 13.6526 0.371087 13.0807 0.792799 12.659C1.21451 12.2373 1.7864 12.0003 2.38279 12H13.8848ZM13.8848 13.5H2.38179C2.18288 13.5 1.99211 13.579 1.85146 13.7197C1.71081 13.8603 1.63179 14.0511 1.63179 14.25V14.827C1.63179 15.362 1.82379 15.88 2.17179 16.287C3.42479 17.756 5.39179 18.501 8.12879 18.501C10.8678 18.501 12.8348 17.756 14.0918 16.288C14.4404 15.8803 14.632 15.3615 14.6318 14.825V14.249C14.6315 14.0506 14.5527 13.8604 14.4125 13.72C14.2723 13.5796 14.0832 13.5005 13.8848 13.5ZM8.12979 0.00500488C8.7864 0.00500487 9.43658 0.134333 10.0432 0.385607C10.6498 0.636881 11.201 1.00518 11.6653 1.46947C12.1296 1.93376 12.4979 2.48496 12.7492 3.09159C13.0005 3.69822 13.1298 4.3484 13.1298 5.005C13.1298 5.66161 13.0005 6.31179 12.7492 6.91842C12.4979 7.52505 12.1296 8.07625 11.6653 8.54054C11.201 9.00483 10.6498 9.37313 10.0432 9.6244C9.43658 9.87568 8.7864 10.005 8.12979 10.005C6.80371 10.005 5.53194 9.47822 4.59425 8.54054C3.65657 7.60286 3.12979 6.33109 3.12979 5.005C3.12979 3.67892 3.65657 2.40715 4.59425 1.46947C5.53194 0.531789 6.80371 0.00500488 8.12979 0.00500488ZM8.12979 1.505C7.67016 1.505 7.21504 1.59554 6.7904 1.77143C6.36576 1.94732 5.97992 2.20513 5.65492 2.53013C5.32991 2.85514 5.0721 3.24097 4.89621 3.66561C4.72032 4.09025 4.62979 4.54538 4.62979 5.005C4.62979 5.46463 4.72032 5.91976 4.89621 6.3444C5.0721 6.76904 5.32991 7.15487 5.65492 7.47988C5.97992 7.80488 6.36576 8.06269 6.7904 8.23858C7.21504 8.41448 7.67016 8.505 8.12979 8.505C9.05805 8.505 9.94828 8.13626 10.6047 7.47988C11.261 6.8235 11.6298 5.93326 11.6298 5.005C11.6298 4.07675 11.261 3.18651 10.6047 2.53013C9.94828 1.87375 9.05805 1.505 8.12979 1.505Z" fill="black"/>
</svg>
