<svg width="25" height="25" viewBox="0 0 25 25" fill="none" xmlns="http://www.w3.org/2000/svg">
<g clip-path="url(#clip0_781_6229)">
<path d="M12.1299 2.49756C17.6529 2.49756 22.1299 6.97456 22.1299 12.4976C22.1299 18.0206 17.6529 22.4976 12.1299 22.4976C6.60688 22.4976 2.12988 18.0206 2.12988 12.4976C2.12988 6.97456 6.60688 2.49756 12.1299 2.49756ZM12.1299 6.49756C11.8647 6.49756 11.6103 6.60292 11.4228 6.79045C11.2352 6.97799 11.1299 7.23234 11.1299 7.49756V12.4976C11.1299 12.7628 11.2353 13.0171 11.4229 13.2046L14.4229 16.2046C14.6115 16.3867 14.8641 16.4875 15.1263 16.4852C15.3885 16.483 15.6393 16.3778 15.8247 16.1924C16.0101 16.007 16.1153 15.7562 16.1176 15.494C16.1198 15.2318 16.019 14.9792 15.8369 14.7906L13.1299 12.0836V7.49756C13.1299 7.23234 13.0245 6.97799 12.837 6.79045C12.6495 6.60292 12.3951 6.49756 12.1299 6.49756Z" fill="#FFABBF"/>
</g>
<defs>
<clipPath id="clip0_781_6229">
<rect width="24" height="24" fill="white" transform="translate(0.129883 0.83252)"/>
</clipPath>
</defs>
</svg>
