<svg width="25" height="25" viewBox="0 0 25 25" fill="none" xmlns="http://www.w3.org/2000/svg">
<path d="M1.46322 7.21411C2.15488 7.21411 2.72155 7.73911 2.78822 8.40994L2.80072 8.68495C2.87155 9.35578 3.43822 9.88078 4.12988 9.88078H11.5924L17.4632 12.3974V22.5474C17.4632 23.2849 16.8674 23.8808 16.1299 23.8808H14.7965C14.059 23.8808 13.4632 23.2849 13.4632 22.5474V17.0766C12.4632 17.5891 11.3299 17.8808 10.1299 17.8808C8.92988 17.8808 7.79655 17.5891 6.79655 17.0766V22.5474C6.79655 23.2849 6.20072 23.8808 5.46322 23.8808H4.12988C3.39238 23.8808 2.79655 23.2849 2.79655 22.5474V12.3141C1.24238 11.7641 0.129883 10.2891 0.129883 8.54744C0.129883 7.80994 0.725716 7.21411 1.46322 7.21411ZM14.9549 1.21411C15.2757 1.21411 15.5757 1.36411 15.7715 1.62244L16.4632 2.54744H18.6341C19.1632 2.54744 19.6716 2.75994 20.0466 3.13494L20.7966 3.88078H23.1299C23.684 3.88078 24.1299 4.32661 24.1299 4.88078V5.88078C24.1299 7.72245 22.6382 9.21411 20.7966 9.21411H18.1299L17.8382 10.3808L12.6424 8.15578L13.959 2.02244C14.059 1.55161 14.4715 1.21411 14.9549 1.21411ZM18.7966 4.38078C18.5755 4.38078 18.3636 4.46858 18.2073 4.62486C18.051 4.78114 17.9632 4.9931 17.9632 5.21411C17.9632 5.43513 18.051 5.64709 18.2073 5.80337C18.3636 5.95965 18.5755 6.04744 18.7966 6.04744C19.0176 6.04744 19.2295 5.95965 19.3858 5.80337C19.5421 5.64709 19.6299 5.43513 19.6299 5.21411C19.6299 4.9931 19.5421 4.78114 19.3858 4.62486C19.2295 4.46858 19.0176 4.38078 18.7966 4.38078Z" fill="black"/>
</svg>
