<svg width="16" height="16" viewBox="0 0 16 16" fill="none" xmlns="http://www.w3.org/2000/svg">
<path fill-rule="evenodd" clip-rule="evenodd" d="M3.78944 4.21053C3.78944 1.88463 5.67407 0 7.99996 0C10.3259 0 12.2105 1.88463 12.2105 4.21053V6.73684H12.5473C13.2884 6.73684 13.8947 7.34316 13.8947 8.08421V13.9789C13.8947 15.0905 12.9852 16 11.8736 16H4.12628C3.0147 16 2.10522 15.0905 2.10522 13.9789V8.08421C2.10522 7.34316 2.71154 6.73684 3.45259 6.73684H3.78944V4.21053ZM10.5263 4.21053V6.73684H5.47365V4.21053C5.47365 2.81432 6.60375 1.68421 7.99996 1.68421C9.39617 1.68421 10.5263 2.81432 10.5263 4.21053ZM7.99996 8.63158C7.66509 8.63123 7.34008 8.74494 7.07847 8.95399C6.81686 9.16304 6.63425 9.45495 6.56072 9.78165C6.48718 10.1083 6.5271 10.4503 6.67391 10.7513C6.82072 11.0523 7.06566 11.2943 7.36838 11.4375V13.4737C7.36838 13.6412 7.43492 13.8018 7.55337 13.9203C7.67181 14.0387 7.83246 14.1053 7.99996 14.1053C8.16747 14.1053 8.32811 14.0387 8.44656 13.9203C8.565 13.8018 8.63154 13.6412 8.63154 13.4737V11.4375C8.93427 11.2943 9.1792 11.0523 9.32601 10.7513C9.47282 10.4503 9.51274 10.1083 9.43921 9.78165C9.36567 9.45495 9.18306 9.16304 8.92145 8.95399C8.65984 8.74494 8.33483 8.63123 7.99996 8.63158Z" fill="#D6D6D6"/>
</svg>
