<svg width="182" height="149" viewBox="0 0 182 149" fill="none" xmlns="http://www.w3.org/2000/svg">
<path d="M65.9091 29.3457H116.091V46.073H65.9091V29.3457Z" fill="#FFFEF5"/>
<path d="M54.1944 42.6074C52.8614 47.7646 52.188 53.0701 52.1903 58.3968C52.1903 78.3041 69.2823 89.1453 90.3633 89.1453C111.444 89.1453 128.536 78.3041 128.536 58.3968C128.513 53.0482 127.72 47.7307 126.184 42.6074M71.2768 55.7438V58.1296Z" fill="#FFFEF5"/>
<path d="M54.1944 42.6074C52.8614 47.7646 52.188 53.0701 52.1903 58.3968C52.1903 78.3041 69.2823 89.1453 90.3633 89.1453C111.444 89.1453 128.536 78.3041 128.536 58.3968C128.513 53.0482 127.72 47.7307 126.184 42.6074M71.2768 55.7438V58.1296" stroke="#8ED7FF" stroke-width="6" stroke-linecap="round" stroke-linejoin="round"/>
<path d="M73.6623 29.5002C71.83 34.5104 68.4946 39.1771 62.4776 41.4293C53.2636 44.8745 45.4143 40.0121 45.0325 36.6577C44.4933 31.9147 50.6487 5.49881 64.119 3.25614C73.2949 1.72444 81.5402 7.28818 81.5402 13.9208C87.5754 12.3887 93.9059 12.4578 99.9062 14.1212C99.9062 7.48859 108.705 1.72444 117.881 3.25614C131.351 5.49881 137.507 31.9147 136.967 36.6577C136.586 40.0121 128.736 44.8745 119.522 41.4293C113.505 39.1771 110.671 34.5104 108.839 29.5002" fill="#FFFEF5"/>
<path d="M73.6623 29.5002C71.83 34.5104 68.4946 39.1771 62.4776 41.4293C53.2636 44.8745 45.4143 40.0121 45.0325 36.6577C44.4933 31.9147 50.6487 5.49881 64.119 3.25614C73.2949 1.72444 81.5402 7.28818 81.5402 13.9208C87.5754 12.3887 93.9059 12.4578 99.9062 14.1212C99.9062 7.48859 108.705 1.72444 117.881 3.25614C131.351 5.49881 137.507 31.9147 136.967 36.6577C136.586 40.0121 128.736 44.8745 119.522 41.4293C113.505 39.1771 110.671 34.5104 108.839 29.5002" stroke="#8ED7FF" stroke-width="6" stroke-linecap="round" stroke-linejoin="round"/>
<path d="M86.784 66.4803H93.9414L90.3627 70.0591L86.784 66.4803ZM109.449 55.7441V58.13Z" fill="#FFFEF5"/>
<path d="M109.449 55.7441V58.13M86.784 66.4803H93.9414L90.3627 70.0591L86.784 66.4803Z" stroke="#8ED7FF" stroke-width="6" stroke-linecap="round" stroke-linejoin="round"/>
<path d="M128.186 135.039C130.473 135.039 132.734 135.108 134.968 135.246C137.228 135.384 139.354 135.59 141.342 135.865C142.431 136.003 143.235 136.265 143.752 136.65C144.296 137.008 144.664 137.614 144.854 138.468C144.963 138.963 145.045 139.528 145.1 140.161C145.154 140.767 145.168 141.4 145.141 142.061C145.141 142.694 145.1 143.328 145.019 143.961C144.964 144.622 144.869 145.214 144.732 145.737C144.515 146.618 144.16 147.251 143.67 147.637C143.207 148.022 142.431 148.271 141.342 148.381C139.326 148.601 137.201 148.752 134.968 148.835C132.734 148.945 130.473 149 128.186 149C125.898 149 123.637 148.945 121.404 148.835C119.171 148.752 117.046 148.601 115.03 148.381C113.968 148.243 113.192 147.981 112.702 147.596C112.212 147.238 111.844 146.618 111.599 145.737C111.462 145.214 111.353 144.622 111.271 143.961C111.217 143.328 111.19 142.694 111.19 142.061C111.19 141.4 111.217 140.767 111.271 140.161C111.326 139.528 111.409 138.963 111.518 138.468C111.708 137.614 112.076 137.008 112.62 136.65C113.165 136.265 113.968 136.003 115.03 135.865C117.019 135.59 119.13 135.384 121.363 135.246C123.624 135.108 125.898 135.039 128.186 135.039ZM65.0488 111C66.4923 111 67.6775 111.413 68.6035 112.239C69.5567 113.065 70.1149 114.332 70.2783 116.039C70.3873 117.003 70.469 117.981 70.5234 118.972C70.6051 119.935 70.6731 120.927 70.7275 121.945L71.9131 121.822C72.8662 121.657 73.6017 122.167 74.1191 123.351C74.6324 124.525 74.8905 126.473 74.8945 129.192C75.0524 128.836 75.2185 128.499 75.3936 128.183C75.7748 127.494 76.1835 126.82 76.6191 126.159C77.1093 125.416 77.4766 124.672 77.7217 123.929C77.9668 123.158 78.1312 122.207 78.2129 121.078C76.6059 120.94 75.4336 120.459 74.6982 119.633C73.963 118.807 73.5957 117.843 73.5957 116.741C73.5957 116.191 73.6913 115.654 73.8818 115.131C74.0725 114.608 74.3589 114.153 74.7402 113.768C75.1487 113.355 75.652 113.024 76.251 112.776C76.8774 112.501 77.5999 112.35 78.417 112.322C79.6425 112.267 80.7865 112.239 81.8486 112.239C82.938 112.212 84.0958 112.198 85.3213 112.198C86.4923 112.198 87.6226 112.212 88.7119 112.239C89.8286 112.239 90.9862 112.267 92.1846 112.322C93.0017 112.35 93.7104 112.501 94.3096 112.776C94.9086 113.024 95.399 113.355 95.7803 113.768C96.1887 114.153 96.4881 114.608 96.6787 115.131C96.8692 115.654 96.9648 116.191 96.9648 116.741C96.9648 117.843 96.5967 118.807 95.8613 119.633C95.1259 120.459 93.982 120.94 92.4297 121.078C92.6203 122.097 92.9068 122.993 93.2881 123.764C93.6693 124.507 94.1046 125.278 94.5947 126.076C94.9216 126.627 95.2493 127.219 95.5762 127.853C95.9029 128.458 96.1885 129.202 96.4336 130.083C96.6787 130.964 96.8559 132.038 96.9648 133.305C97.101 134.571 97.1414 136.127 97.0869 137.972C97.0052 140.009 96.8555 141.648 96.6377 142.887C96.4471 144.126 96.1615 145.09 95.7803 145.778C95.4262 146.467 94.9764 146.921 94.4316 147.142C93.887 147.389 93.247 147.514 92.5117 147.514C91.5586 147.514 90.7552 147.403 90.1016 147.183C89.4753 146.962 88.9573 146.508 88.5488 145.82C88.1675 145.159 87.8811 144.195 87.6904 142.929C87.527 141.662 87.4453 139.996 87.4453 137.931C87.4453 136.334 87.3498 134.847 87.1592 133.47C86.9685 132.093 86.7106 130.895 86.3838 129.876C86.3021 129.601 86.1651 129.408 85.9746 129.298C85.7841 129.188 85.6067 129.161 85.4434 129.216C85.2801 129.243 85.144 129.34 85.0352 129.505C84.9536 129.67 84.9535 129.876 85.0352 130.124C85.3619 131.06 85.6337 132.244 85.8516 133.676C86.0694 135.08 86.1787 136.705 86.1787 138.55C86.1787 140.422 86.0694 141.937 85.8516 143.094C85.6609 144.25 85.3212 145.145 84.8311 145.778C84.3409 146.412 83.7008 146.825 82.9111 147.018C82.1485 147.238 81.1946 147.348 80.0508 147.348C78.1171 147.348 76.5775 146.591 75.4336 145.076C74.2899 143.589 73.6774 141.097 73.5957 137.601C73.5778 137.083 73.5715 136.59 73.5742 136.12C73.1242 136.66 72.5703 136.891 71.9131 136.815L70.8096 136.65C70.7551 137.889 70.6872 139.128 70.6055 140.367C70.5238 141.579 70.4145 142.791 70.2783 144.002C70.1149 145.654 69.5567 146.894 68.6035 147.72C67.6775 148.546 66.4923 148.959 65.0488 148.959C63.3876 148.959 62.0664 148.491 61.0859 147.555C60.1055 146.619 59.7108 145.214 59.9014 143.342C60.4461 138.881 60.7187 134.448 60.7188 130.042C60.7188 125.636 60.4599 121.298 59.9424 117.03C59.8335 116.012 59.8876 115.13 60.1055 114.387C60.3233 113.616 60.6503 112.983 61.0859 112.487C61.5489 111.992 62.121 111.62 62.8018 111.372C63.4826 111.124 64.2319 111 65.0488 111ZM103.338 111C104.781 111 105.967 111.413 106.893 112.239C107.846 113.065 108.404 114.332 108.567 116.039C109.03 120.527 109.263 125.181 109.263 130C109.263 134.819 109.03 139.486 108.567 144.002C108.404 145.654 107.846 146.894 106.893 147.72C105.967 148.546 104.781 148.959 103.338 148.959C102.521 148.959 101.772 148.835 101.091 148.587C100.41 148.367 99.8379 148.023 99.375 147.555C98.912 147.087 98.5714 146.494 98.3535 145.778C98.1357 145.09 98.0815 144.278 98.1904 143.342C98.7079 138.881 98.9668 134.448 98.9668 130.042C98.9668 125.636 98.7217 121.298 98.2314 117.03C98.0137 114.965 98.3947 113.451 99.375 112.487C100.355 111.496 101.677 111 103.338 111ZM176.076 111C177.519 111 178.704 111.413 179.63 112.239C180.583 113.065 181.142 114.332 181.306 116.039C181.769 120.527 182 125.181 182 130C182 134.819 181.769 139.486 181.306 144.002C181.142 145.654 180.583 146.894 179.63 147.72C178.704 148.546 177.519 148.959 176.076 148.959C175.259 148.959 174.51 148.835 173.829 148.587C173.148 148.367 172.576 148.023 172.113 147.555C171.65 147.087 171.31 146.494 171.092 145.778C170.874 145.09 170.819 144.278 170.928 143.342C171.445 138.881 171.704 134.448 171.704 130.042C171.704 125.636 171.459 121.298 170.969 117.03C170.751 114.965 171.133 113.451 172.113 112.487C173.094 111.496 174.415 111 176.076 111ZM18.3438 133.057C21.2307 133.057 23.7094 133.249 25.7793 133.635C27.8765 134.02 29.5931 134.585 30.9277 135.328C32.2622 136.044 33.2427 136.94 33.8691 138.014C34.5226 139.06 34.8496 140.258 34.8496 141.606C34.8496 142.983 34.5632 144.126 33.9912 145.035C33.4465 145.971 32.5339 146.728 31.2539 147.307C29.9739 147.885 28.2717 148.298 26.1475 148.546C24.0503 148.794 21.4487 148.918 18.3438 148.918C15.239 148.918 12.6243 148.794 10.5 148.546C8.40281 148.298 6.69993 147.885 5.39258 147.307C4.11263 146.728 3.19996 145.971 2.65527 145.035C2.11055 144.126 1.83888 142.983 1.83887 141.606C1.83892 140.257 2.15203 139.06 2.77832 138.014C3.40476 136.94 4.38513 136.044 5.71973 135.328C7.08149 134.585 8.79736 134.02 10.8672 133.635C12.9371 133.249 15.4296 133.057 18.3438 133.057ZM28.8027 111C30.2463 111 31.4314 111.33 32.3574 111.991C33.2834 112.625 33.8415 113.644 34.0322 115.048C34.0594 115.213 34.087 115.379 34.1143 115.544C34.1415 115.709 34.1681 115.874 34.1953 116.039L35.5439 115.915C36.4971 115.805 37.2325 116.246 37.75 117.237C38.0546 117.805 38.2692 118.606 38.3945 119.641C38.7015 118.663 39.0743 117.779 39.5146 116.989C40.3589 115.447 41.4892 114.264 42.9053 113.438C44.3215 112.584 46.1062 112.157 48.2578 112.157C50.4093 112.157 52.1932 112.584 53.6094 113.438C55.0256 114.264 56.1567 115.447 57.001 116.989C57.8452 118.504 58.43 120.363 58.7568 122.565C59.1109 124.741 59.2881 127.164 59.2881 129.835C59.2881 132.506 59.0981 134.929 58.7168 137.104C58.3355 139.28 57.7085 141.139 56.8369 142.681C55.9926 144.223 54.8625 145.407 53.4463 146.233C52.0301 147.087 50.3003 147.514 48.2578 147.514C46.2154 147.514 44.4855 147.087 43.0693 146.233C41.6531 145.407 40.5092 144.223 39.6377 142.681C38.7934 141.139 38.1801 139.28 37.7988 137.104C37.4175 134.929 37.2266 132.506 37.2266 129.835C37.2266 129.116 37.239 128.414 37.2627 127.73C36.8025 128.221 36.2296 128.427 35.5439 128.348L34.1143 128.183C34.1006 128.238 34.0908 128.293 34.084 128.349L34.0625 128.679C34.0556 128.734 34.0458 128.789 34.0322 128.844C33.8416 130.22 33.2834 131.24 32.3574 131.9C31.4314 132.561 30.2463 132.892 28.8027 132.892C27.9857 132.892 27.2366 132.795 26.5557 132.603C25.9021 132.41 25.3438 132.134 24.8809 131.776C24.4451 131.391 24.1183 130.923 23.9004 130.372C23.7097 129.794 23.6684 129.119 23.7773 128.348C24.0769 126.062 24.2266 123.942 24.2266 121.987C24.2266 120.032 24.0907 117.994 23.8184 115.874C23.5733 114.167 23.9277 112.928 24.8809 112.157C25.8341 111.386 27.1413 111 28.8027 111ZM158.1 112.157C160.251 112.157 162.036 112.584 163.452 113.438C164.868 114.264 165.999 115.447 166.843 116.989C167.687 118.504 168.273 120.363 168.6 122.565C168.954 124.741 169.131 127.164 169.131 129.835C169.131 132.506 168.94 134.929 168.559 137.104C168.177 139.28 167.551 141.139 166.68 142.681C165.835 144.223 164.704 145.407 163.288 146.233C161.872 147.087 160.142 147.514 158.1 147.514C156.057 147.514 154.327 147.087 152.911 146.233C151.495 145.407 150.351 144.223 149.479 142.681C148.635 141.139 148.022 139.28 147.641 137.104C147.259 134.929 147.069 132.506 147.069 129.835C147.069 127.164 147.232 124.741 147.559 122.565C147.913 120.363 148.512 118.504 149.356 116.989C150.201 115.447 151.332 114.264 152.748 113.438C154.164 112.584 155.948 112.157 158.1 112.157ZM125.653 141.565C125.544 141.483 125.394 141.47 125.204 141.524C125.014 141.579 124.863 141.703 124.754 141.896C124.509 142.253 124.686 142.612 125.285 142.97C126.211 143.465 127.178 143.713 128.186 143.713C129.22 143.685 130.215 143.438 131.168 142.97C131.549 142.694 131.686 142.377 131.577 142.02C131.523 141.854 131.4 141.717 131.209 141.606C131.046 141.496 130.868 141.496 130.678 141.606C129.942 142.019 129.098 142.227 128.145 142.227C127.219 142.199 126.388 141.978 125.653 141.565ZM15.8516 140.326C15.7154 140.271 15.5519 140.271 15.3613 140.326C15.1708 140.381 15.0072 140.533 14.8711 140.78C14.6805 141.221 14.8439 141.566 15.3613 141.813C16.3145 142.337 17.2951 142.598 18.3027 142.598C19.3376 142.57 20.332 142.309 21.2852 141.813C21.4213 141.758 21.5444 141.634 21.6533 141.441C21.7622 141.249 21.775 141.042 21.6934 140.822C21.6389 140.63 21.5168 140.492 21.3262 140.409C21.1356 140.299 20.9583 140.285 20.7949 140.367C20.0325 140.808 19.1885 141.028 18.2627 141.028C17.3639 141.028 16.5597 140.794 15.8516 140.326ZM139.462 111C140.905 111 142.091 111.33 143.017 111.991C143.943 112.625 144.501 113.644 144.691 115.048C144.882 116.204 145.018 117.471 145.1 118.848C145.181 120.197 145.223 121.561 145.223 122.938C145.223 124.314 145.181 125.677 145.1 127.026C145.018 128.376 144.882 129.629 144.691 130.785C144.501 132.162 143.943 133.181 143.017 133.842C142.091 134.503 140.905 134.833 139.462 134.833C137.801 134.833 136.493 134.461 135.54 133.718C134.587 132.974 134.206 131.831 134.396 130.289C134.723 127.976 134.886 125.539 134.886 122.979C134.886 120.39 134.736 118.022 134.437 115.874C134.328 115.021 134.369 114.29 134.56 113.685C134.777 113.079 135.104 112.584 135.54 112.198C136.003 111.785 136.561 111.482 137.215 111.289C137.896 111.096 138.645 111 139.462 111ZM48.4326 129.384C47.6398 129.384 46.8799 129.714 46.3193 130.3C45.7586 130.886 45.4434 131.681 45.4434 132.51C45.4434 133.117 45.7505 133.576 46.1689 133.869C46.5803 134.157 47.1083 134.296 47.6123 134.296H49.2539C49.7578 134.296 50.2854 134.157 50.6963 133.869C51.1153 133.576 51.4228 133.117 51.4229 132.51C51.4229 131.681 51.1076 130.886 50.5469 130.3C49.9862 129.714 49.2256 129.384 48.4326 129.384ZM158.333 129.384C157.54 129.384 156.779 129.714 156.219 130.3C155.658 130.886 155.343 131.681 155.343 132.51C155.343 133.117 155.651 133.576 156.069 133.869C156.481 134.157 157.008 134.296 157.512 134.296H159.153C159.657 134.296 160.185 134.157 160.596 133.869C161.015 133.576 161.322 133.117 161.322 132.51C161.322 131.681 161.008 130.886 160.447 130.3C159.887 129.714 159.126 129.384 158.333 129.384ZM120.424 111.661C121.431 111.661 122.412 111.689 123.365 111.744C124.345 111.799 125.189 111.881 125.897 111.991C129.356 112.68 131.509 114.648 132.354 117.897C132.544 118.531 132.68 119.302 132.762 120.211C132.871 121.092 132.925 122.015 132.925 122.979C132.925 123.915 132.884 124.851 132.803 125.787C132.721 126.696 132.584 127.481 132.394 128.142C132.039 129.463 131.427 130.537 130.556 131.363C129.711 132.189 128.745 132.823 127.655 133.264C126.593 133.677 125.476 133.938 124.305 134.048C123.134 134.13 122.071 134.089 121.118 133.924C119.184 133.566 117.877 132.96 117.196 132.106C116.515 131.225 116.243 130.262 116.379 129.216C116.461 128.665 116.72 128.141 117.155 127.646C117.591 127.122 118.149 126.654 118.83 126.241C119.511 125.801 120.26 125.402 121.077 125.044C121.921 124.658 122.752 124.328 123.569 124.053C123.814 123.97 123.978 123.846 124.06 123.681C124.141 123.516 124.155 123.364 124.101 123.227C124.073 123.061 123.978 122.951 123.814 122.896C123.651 122.84 123.446 122.868 123.201 122.979C122.139 123.474 121.118 123.832 120.138 124.053C119.184 124.273 118.176 124.424 117.114 124.507C115.916 124.589 114.935 124.616 114.173 124.589C113.41 124.534 112.797 124.411 112.334 124.218C111.898 123.998 111.599 123.708 111.436 123.351C111.272 122.965 111.19 122.496 111.19 121.945C111.218 120.954 111.668 120.293 112.539 119.963C113.438 119.633 114.909 119.468 116.951 119.468H118.217C118.761 119.468 119.347 119.481 119.974 119.509C120.627 119.509 121.268 119.522 121.895 119.55C122.521 119.577 123.079 119.605 123.569 119.633C123.896 119.66 124.141 119.591 124.305 119.426C124.495 119.261 124.591 119.082 124.591 118.89C124.591 118.697 124.509 118.518 124.346 118.353C124.182 118.187 123.923 118.105 123.569 118.104H115.071C114.309 118.104 113.615 118.091 112.988 118.063C112.389 118.008 111.871 117.884 111.436 117.691C111 117.499 110.659 117.195 110.414 116.782C110.196 116.369 110.087 115.791 110.087 115.048C110.087 114.552 110.21 114.153 110.455 113.851C110.727 113.52 111.082 113.245 111.518 113.024C111.981 112.804 112.511 112.625 113.11 112.487C113.71 112.322 114.363 112.156 115.071 111.991C115.752 111.881 116.556 111.799 117.481 111.744C118.435 111.689 119.416 111.661 120.424 111.661ZM8.62012 111.619C10.3632 111.537 12.1341 111.523 13.9316 111.578C15.3477 111.633 16.5735 111.784 17.6084 112.032C18.6434 112.28 19.5017 112.625 20.1826 113.065C20.8634 113.478 21.3941 113.975 21.7754 114.553C22.1566 115.103 22.4156 115.723 22.5518 116.411C22.7152 117.265 22.8382 118.187 22.9199 119.179C23.0016 120.142 23.0154 121.134 22.9609 122.152C22.9337 123.171 22.8107 124.177 22.5928 125.168C22.4021 126.132 22.0753 127.027 21.6123 127.853C20.9042 129.229 19.6786 130.345 17.9355 131.198C16.2196 132.024 13.9311 132.355 11.0713 132.189C8.56572 132.052 6.72678 131.556 5.55566 130.702C4.41206 129.821 3.73156 128.554 3.51367 126.902C3.40478 125.994 3.60854 125.084 4.12598 124.176C4.64342 123.267 5.37896 122.414 6.33203 121.615C7.28527 120.789 8.41635 120.046 9.72363 119.385C11.0308 118.696 12.4338 118.146 13.9316 117.733C14.095 117.678 14.2043 117.581 14.2588 117.443C14.3402 117.306 14.3531 117.182 14.2988 117.072C14.2716 116.935 14.1907 116.824 14.0547 116.741C13.9457 116.659 13.7951 116.645 13.6045 116.7C12.4606 117.086 11.2891 117.444 10.0908 117.774C8.89252 118.105 7.50334 118.339 5.92383 118.477C5.18854 118.532 4.45306 118.545 3.71777 118.518C3.0098 118.463 2.3835 118.338 1.83887 118.146C1.29413 117.953 0.844311 117.664 0.490234 117.278C0.163433 116.865 0 116.314 0 115.626C5.59404e-05 114.663 0.299507 113.892 0.898438 113.313C1.52484 112.735 2.61466 112.322 4.16699 112.074C5.4198 111.854 6.90434 111.702 8.62012 111.619ZM44.8027 127.598C44.174 127.598 43.7344 128.191 43.7344 128.826C43.7346 129.461 44.1741 130.054 44.8027 130.054C45.4312 130.054 45.8699 129.461 45.8701 128.826C45.8701 128.191 45.4313 127.598 44.8027 127.598ZM52.0635 127.598C51.4348 127.598 50.9961 128.191 50.9961 128.826C50.9963 129.461 51.4349 130.054 52.0635 130.054C52.6921 130.054 53.1317 129.461 53.1318 128.826C53.1318 128.191 52.6922 127.598 52.0635 127.598ZM154.702 127.598C154.074 127.598 153.635 128.191 153.635 128.826C153.635 129.461 154.074 130.054 154.702 130.054C155.331 130.054 155.77 129.461 155.771 128.826C155.771 128.191 155.331 127.598 154.702 127.598ZM161.963 127.598C161.334 127.598 160.896 128.191 160.896 128.826C160.896 129.461 161.335 130.053 161.963 130.054C162.591 130.054 163.031 129.461 163.031 128.826C163.031 128.191 162.592 127.598 161.963 127.598ZM47.0449 126.035C46.4163 126.035 45.9776 126.628 45.9775 127.263C45.9775 127.898 46.4162 128.491 47.0449 128.491C47.6736 128.491 48.1123 127.898 48.1123 127.263C48.1122 126.628 47.6736 126.035 47.0449 126.035ZM49.8213 126.035C49.1926 126.035 48.753 126.628 48.7529 127.263C48.7529 127.898 49.1926 128.491 49.8213 128.491C50.45 128.491 50.8887 127.898 50.8887 127.263C50.8886 126.628 50.4499 126.035 49.8213 126.035ZM156.944 126.035C156.316 126.035 155.877 126.628 155.877 127.263C155.877 127.898 156.316 128.491 156.944 128.491C157.573 128.491 158.013 127.898 158.013 127.263C158.013 126.628 157.573 126.035 156.944 126.035ZM159.721 126.035C159.092 126.035 158.653 126.628 158.653 127.263C158.653 127.898 159.092 128.491 159.721 128.491C160.349 128.491 160.789 127.898 160.789 127.263C160.789 126.628 160.349 126.035 159.721 126.035Z" fill="#8ED7FF"/>
</svg>
