<svg width="182" height="152" viewBox="0 0 182 152" fill="none" xmlns="http://www.w3.org/2000/svg">
<path d="M63.9369 36.123L113.678 29.4847L115.89 46.065L66.1497 52.7034L63.9369 36.123Z" fill="#FFFEF5"/>
<path d="M54.0796 50.8189C53.4405 56.1071 53.4749 61.455 54.1818 66.7346C56.8153 86.467 75.1912 94.9518 96.0869 92.1631C116.983 89.3744 132.49 76.3674 129.857 56.6351C129.126 51.3366 127.637 46.1706 125.436 41.2956M72.7496 61.58L73.0652 63.9449Z" fill="#FFFEF5"/>
<path d="M54.0796 50.8189C53.4405 56.1071 53.4749 61.455 54.1818 66.7346C56.8153 86.467 75.1912 94.9518 96.0869 92.1631C116.983 89.3744 132.49 76.3674 129.857 56.6351C129.126 51.3366 127.637 46.1706 125.436 41.2956M72.7496 61.58L73.0652 63.9449" stroke="#8ED7FF" stroke-width="6" stroke-linecap="round" stroke-linejoin="round"/>
<path d="M71.6424 35.2511C70.489 40.4597 67.8003 45.5265 62.1341 48.5549C53.4568 53.1887 45.0332 49.4075 44.2111 46.133C43.0492 41.503 45.6561 14.505 58.7113 10.5001C67.6039 7.76802 76.5128 12.1921 77.3902 18.7664C83.1697 16.4494 89.4537 15.6804 95.6213 16.5355C94.7439 9.96119 107.678 9.22342 116.976 9.52782C130.624 9.96885 127.383 0.572442 135.313 7.08052C140.963 7.83977 128.346 41.8074 118.678 41.0087C112.415 39.5722 108.989 35.3215 106.51 30.5977" fill="#FFFEF5"/>
<path d="M71.6424 35.2511C70.489 40.4597 67.8003 45.5265 62.1341 48.5549C53.4568 53.1887 45.0332 49.4075 44.2111 46.133C43.0492 41.503 45.6561 14.505 58.7113 10.5001C67.6039 7.76802 76.5128 12.1921 77.3902 18.7664C83.1697 16.4494 89.4537 15.6804 95.6213 16.5355C94.7439 9.96119 107.678 9.22342 116.976 9.52782C130.624 9.96885 127.383 0.572442 135.313 7.08052C140.963 7.83977 128.346 41.8074 118.678 41.0087C112.415 39.5722 108.989 35.3215 106.51 30.5977" stroke="#8ED7FF" stroke-width="6" stroke-linecap="round" stroke-linejoin="round"/>
<path d="M89.5409 70.1711L96.6354 69.2243L93.5615 73.245L89.5409 70.1711ZM111.628 56.392L107.714 56.9144Z" fill="#FFFEF5"/>
<path d="M111.628 56.392L107.714 56.9144M89.5409 70.1711L96.6354 69.2243L93.5615 73.245L89.5409 70.1711Z" stroke="#8ED7FF" stroke-width="6" stroke-linecap="round" stroke-linejoin="round"/>
<path d="M128.186 138.047C130.473 138.047 132.734 138.116 134.968 138.254C137.228 138.392 139.354 138.598 141.342 138.873C142.431 139.011 143.235 139.273 143.752 139.658C144.296 140.016 144.664 140.622 144.854 141.476C144.963 141.971 145.045 142.536 145.1 143.169C145.154 143.775 145.168 144.408 145.141 145.068C145.141 145.702 145.1 146.336 145.019 146.969C144.964 147.63 144.869 148.222 144.732 148.745C144.515 149.626 144.16 150.259 143.67 150.645C143.207 151.03 142.431 151.279 141.342 151.389C139.326 151.609 137.201 151.76 134.968 151.843C132.734 151.953 130.473 152.008 128.186 152.008C125.898 152.008 123.637 151.953 121.404 151.843C119.171 151.76 117.046 151.609 115.03 151.389C113.968 151.251 113.192 150.989 112.702 150.604C112.212 150.246 111.844 149.626 111.599 148.745C111.462 148.222 111.353 147.63 111.271 146.969C111.217 146.336 111.19 145.702 111.19 145.068C111.19 144.408 111.217 143.775 111.271 143.169C111.326 142.536 111.409 141.971 111.518 141.476C111.708 140.622 112.076 140.016 112.62 139.658C113.165 139.273 113.968 139.011 115.03 138.873C117.019 138.598 119.13 138.392 121.363 138.254C123.624 138.116 125.898 138.047 128.186 138.047ZM65.0488 114.008C66.4923 114.008 67.6775 114.421 68.6035 115.247C69.5567 116.073 70.1149 117.34 70.2783 119.047C70.3873 120.011 70.469 120.988 70.5234 121.979C70.6051 122.943 70.6731 123.935 70.7275 124.953L71.9131 124.83C72.8662 124.665 73.6017 125.174 74.1191 126.358C74.6324 127.533 74.8905 129.481 74.8945 132.2C75.0524 131.844 75.2185 131.506 75.3936 131.19C75.7748 130.502 76.1835 129.828 76.6191 129.167C77.1093 128.424 77.4766 127.68 77.7217 126.937C77.9668 126.166 78.1312 125.215 78.2129 124.086C76.6059 123.948 75.4336 123.467 74.6982 122.641C73.963 121.815 73.5957 120.85 73.5957 119.749C73.5957 119.198 73.6913 118.662 73.8818 118.139C74.0725 117.616 74.3589 117.161 74.7402 116.775C75.1487 116.363 75.652 116.032 76.251 115.784C76.8774 115.509 77.5999 115.358 78.417 115.33C79.6425 115.275 80.7865 115.247 81.8486 115.247C82.938 115.22 84.0958 115.206 85.3213 115.206C86.4923 115.206 87.6226 115.22 88.7119 115.247C89.8286 115.247 90.9862 115.275 92.1846 115.33C93.0017 115.358 93.7104 115.509 94.3096 115.784C94.9086 116.032 95.399 116.362 95.7803 116.775C96.1887 117.161 96.4881 117.616 96.6787 118.139C96.8692 118.662 96.9648 119.199 96.9648 119.749C96.9648 120.85 96.5967 121.815 95.8613 122.641C95.1259 123.467 93.982 123.948 92.4297 124.086C92.6203 125.105 92.9068 126 93.2881 126.771C93.6693 127.515 94.1046 128.286 94.5947 129.084C94.9216 129.635 95.2493 130.227 95.5762 130.86C95.9029 131.466 96.1885 132.21 96.4336 133.091C96.6787 133.972 96.8559 135.046 96.9648 136.312C97.101 137.579 97.1414 139.135 97.0869 140.979C97.0052 143.017 96.8555 144.655 96.6377 145.895C96.4471 147.134 96.1615 148.098 95.7803 148.786C95.4262 149.475 94.9764 149.929 94.4316 150.149C93.887 150.397 93.247 150.521 92.5117 150.521C91.5586 150.521 90.7552 150.411 90.1016 150.19C89.4753 149.97 88.9573 149.516 88.5488 148.828C88.1675 148.167 87.8811 147.203 87.6904 145.937C87.527 144.67 87.4453 143.004 87.4453 140.938C87.4453 139.341 87.3498 137.854 87.1592 136.478C86.9685 135.101 86.7106 133.903 86.3838 132.884C86.3021 132.609 86.1651 132.416 85.9746 132.306C85.7841 132.196 85.6067 132.169 85.4434 132.224C85.2801 132.251 85.144 132.348 85.0352 132.513C84.9536 132.678 84.9535 132.884 85.0352 133.132C85.3619 134.068 85.6337 135.252 85.8516 136.684C86.0694 138.088 86.1787 139.713 86.1787 141.558C86.1787 143.43 86.0694 144.945 85.8516 146.102C85.6609 147.258 85.3212 148.153 84.8311 148.786C84.3409 149.419 83.7008 149.833 82.9111 150.025C82.1485 150.246 81.1946 150.355 80.0508 150.355C78.1171 150.355 76.5775 149.598 75.4336 148.084C74.2899 146.597 73.6774 144.105 73.5957 140.608C73.5778 140.091 73.5715 139.597 73.5742 139.128C73.1242 139.667 72.5703 139.899 71.9131 139.823L70.8096 139.658C70.7551 140.897 70.6872 142.136 70.6055 143.375C70.5238 144.586 70.4145 145.798 70.2783 147.01C70.1149 148.662 69.5567 149.901 68.6035 150.728C67.6775 151.554 66.4923 151.967 65.0488 151.967C63.3876 151.967 62.0664 151.499 61.0859 150.562C60.1055 149.626 59.7108 148.222 59.9014 146.35C60.4461 141.889 60.7187 137.455 60.7188 133.05C60.7188 128.644 60.4599 124.306 59.9424 120.038C59.8335 119.019 59.8876 118.138 60.1055 117.395C60.3233 116.624 60.6503 115.991 61.0859 115.495C61.5489 115 62.121 114.628 62.8018 114.38C63.4826 114.132 64.2319 114.008 65.0488 114.008ZM103.338 114.008C104.781 114.008 105.967 114.421 106.893 115.247C107.846 116.073 108.404 117.34 108.567 119.047C109.03 123.535 109.263 128.189 109.263 133.008C109.263 137.827 109.03 142.494 108.567 147.01C108.404 148.662 107.846 149.901 106.893 150.728C105.967 151.554 104.781 151.967 103.338 151.967C102.521 151.967 101.772 151.842 101.091 151.595C100.41 151.374 99.8379 151.031 99.375 150.562C98.912 150.094 98.5714 149.502 98.3535 148.786C98.1357 148.098 98.0815 147.286 98.1904 146.35C98.7079 141.889 98.9668 137.455 98.9668 133.05C98.9668 128.644 98.7217 124.306 98.2314 120.038C98.0137 117.973 98.3947 116.459 99.375 115.495C100.355 114.504 101.677 114.008 103.338 114.008ZM176.076 114.008C177.519 114.008 178.704 114.421 179.63 115.247C180.583 116.073 181.142 117.34 181.306 119.047C181.769 123.535 182 128.189 182 133.008C182 137.827 181.769 142.494 181.306 147.01C181.142 148.662 180.583 149.901 179.63 150.728C178.704 151.553 177.519 151.967 176.076 151.967C175.259 151.967 174.51 151.843 173.829 151.595C173.148 151.374 172.576 151.03 172.113 150.562C171.65 150.094 171.31 149.502 171.092 148.786C170.874 148.098 170.819 147.286 170.928 146.35C171.445 141.889 171.704 137.455 171.704 133.05C171.704 128.644 171.459 124.306 170.969 120.038C170.751 117.973 171.133 116.459 172.113 115.495C173.094 114.504 174.415 114.008 176.076 114.008ZM18.3438 136.064C21.2307 136.064 23.7094 136.257 25.7793 136.643C27.8765 137.028 29.5931 137.592 30.9277 138.336C32.2622 139.052 33.2427 139.948 33.8691 141.021C34.5226 142.068 34.8496 143.265 34.8496 144.614C34.8496 145.991 34.5632 147.134 33.9912 148.043C33.4465 148.979 32.5339 149.736 31.2539 150.314C29.9739 150.893 28.2717 151.306 26.1475 151.554C24.0503 151.802 21.4487 151.926 18.3438 151.926C15.239 151.926 12.6243 151.802 10.5 151.554C8.40281 151.306 6.69993 150.893 5.39258 150.314C4.11263 149.736 3.19996 148.979 2.65527 148.043C2.11055 147.134 1.83888 145.991 1.83887 144.614C1.83892 143.265 2.15203 142.068 2.77832 141.021C3.40476 139.948 4.38513 139.052 5.71973 138.336C7.08149 137.593 8.79736 137.028 10.8672 136.643C12.9371 136.257 15.4296 136.064 18.3438 136.064ZM28.8027 114.008C30.2463 114.008 31.4314 114.338 32.3574 114.999C33.2834 115.632 33.8415 116.652 34.0322 118.056C34.0594 118.221 34.087 118.387 34.1143 118.552C34.1415 118.717 34.1681 118.882 34.1953 119.047L35.5439 118.923C36.4971 118.813 37.2325 119.254 37.75 120.245C38.0546 120.812 38.2692 121.614 38.3945 122.648C38.7015 121.671 39.0743 120.787 39.5146 119.997C40.3589 118.455 41.4892 117.271 42.9053 116.445C44.3215 115.592 46.1062 115.165 48.2578 115.165C50.4093 115.165 52.1932 115.592 53.6094 116.445C55.0256 117.271 56.1567 118.455 57.001 119.997C57.8452 121.511 58.43 123.371 58.7568 125.573C59.1109 127.749 59.2881 130.172 59.2881 132.843C59.2881 135.514 59.0981 137.937 58.7168 140.112C58.3355 142.288 57.7085 144.146 56.8369 145.688C55.9926 147.23 54.8625 148.415 53.4463 149.241C52.0301 150.095 50.3003 150.521 48.2578 150.521C46.2154 150.521 44.4855 150.095 43.0693 149.241C41.6531 148.415 40.5092 147.23 39.6377 145.688C38.7934 144.146 38.1801 142.288 37.7988 140.112C37.4175 137.937 37.2266 135.514 37.2266 132.843C37.2266 132.123 37.239 131.422 37.2627 130.738C36.8025 131.229 36.2296 131.435 35.5439 131.355L34.1143 131.19C34.1006 131.246 34.0908 131.301 34.084 131.356L34.0625 131.687C34.0556 131.742 34.0458 131.797 34.0322 131.852C33.8416 133.228 33.2834 134.247 32.3574 134.908C31.4314 135.569 30.2463 135.899 28.8027 135.899C27.9857 135.899 27.2366 135.803 26.5557 135.61C25.9021 135.418 25.3438 135.142 24.8809 134.784C24.4451 134.399 24.1183 133.931 23.9004 133.38C23.7097 132.802 23.6684 132.126 23.7773 131.355C24.0769 129.07 24.2266 126.95 24.2266 124.995C24.2266 123.04 24.0907 121.002 23.8184 118.882C23.5733 117.175 23.9277 115.936 24.8809 115.165C25.8341 114.394 27.1413 114.008 28.8027 114.008ZM158.1 115.165C160.251 115.165 162.036 115.592 163.452 116.445C164.868 117.271 165.999 118.455 166.843 119.997C167.687 121.511 168.273 123.371 168.6 125.573C168.954 127.749 169.131 130.172 169.131 132.843C169.131 135.514 168.94 137.937 168.559 140.112C168.177 142.288 167.551 144.146 166.68 145.688C165.835 147.231 164.704 148.415 163.288 149.241C161.872 150.095 160.142 150.521 158.1 150.521C156.057 150.521 154.327 150.095 152.911 149.241C151.495 148.415 150.351 147.23 149.479 145.688C148.635 144.146 148.022 142.288 147.641 140.112C147.259 137.937 147.069 135.514 147.069 132.843C147.069 130.172 147.232 127.749 147.559 125.573C147.913 123.371 148.512 121.511 149.356 119.997C150.201 118.455 151.332 117.271 152.748 116.445C154.164 115.592 155.948 115.165 158.1 115.165ZM125.653 144.573C125.544 144.491 125.394 144.477 125.204 144.532C125.014 144.587 124.863 144.711 124.754 144.903C124.509 145.261 124.686 145.62 125.285 145.978C126.211 146.473 127.178 146.721 128.186 146.721C129.22 146.693 130.215 146.446 131.168 145.978C131.549 145.702 131.686 145.385 131.577 145.027C131.523 144.862 131.4 144.724 131.209 144.614C131.046 144.504 130.868 144.504 130.678 144.614C129.942 145.027 129.098 145.234 128.145 145.234C127.219 145.207 126.388 144.986 125.653 144.573ZM15.8516 143.334C15.7154 143.279 15.5519 143.279 15.3613 143.334C15.1708 143.389 15.0072 143.54 14.8711 143.788C14.6805 144.229 14.8439 144.573 15.3613 144.821C16.3145 145.344 17.2951 145.605 18.3027 145.605C19.3376 145.578 20.332 145.317 21.2852 144.821C21.4213 144.766 21.5444 144.642 21.6533 144.449C21.7622 144.257 21.775 144.05 21.6934 143.83C21.6389 143.637 21.5168 143.5 21.3262 143.417C21.1356 143.307 20.9583 143.292 20.7949 143.375C20.0325 143.815 19.1885 144.036 18.2627 144.036C17.3639 144.036 16.5597 143.802 15.8516 143.334ZM139.462 114.008C140.905 114.008 142.091 114.338 143.017 114.999C143.943 115.632 144.501 116.652 144.691 118.056C144.882 119.212 145.018 120.479 145.1 121.855C145.181 123.205 145.223 124.569 145.223 125.945C145.223 127.322 145.181 128.685 145.1 130.034C145.018 131.383 144.882 132.636 144.691 133.793C144.501 135.17 143.943 136.189 143.017 136.85C142.091 137.51 140.905 137.841 139.462 137.841C137.801 137.841 136.493 137.469 135.54 136.726C134.587 135.982 134.206 134.839 134.396 133.297C134.723 130.984 134.886 128.547 134.886 125.986C134.886 123.398 134.736 121.03 134.437 118.882C134.328 118.028 134.369 117.298 134.56 116.692C134.777 116.087 135.104 115.591 135.54 115.206C136.003 114.793 136.561 114.49 137.215 114.297C137.896 114.104 138.645 114.008 139.462 114.008ZM48.4326 132.392C47.6398 132.392 46.8799 132.722 46.3193 133.308C45.7586 133.894 45.4434 134.689 45.4434 135.518C45.4434 136.125 45.7505 136.584 46.1689 136.877C46.5803 137.165 47.1083 137.304 47.6123 137.304H49.2539C49.7578 137.304 50.2854 137.165 50.6963 136.877C51.1153 136.584 51.4228 136.125 51.4229 135.518C51.4229 134.689 51.1076 133.894 50.5469 133.308C49.9862 132.721 49.2256 132.392 48.4326 132.392ZM158.333 132.392C157.54 132.392 156.779 132.721 156.219 133.308C155.658 133.894 155.343 134.689 155.343 135.518C155.343 136.125 155.651 136.584 156.069 136.877C156.481 137.165 157.008 137.304 157.512 137.304H159.153C159.657 137.304 160.185 137.165 160.596 136.877C161.015 136.584 161.322 136.125 161.322 135.518C161.322 134.689 161.008 133.894 160.447 133.308C159.887 132.721 159.126 132.392 158.333 132.392ZM120.424 114.669C121.431 114.669 122.412 114.697 123.365 114.752C124.345 114.807 125.189 114.889 125.897 114.999C129.356 115.687 131.509 117.656 132.354 120.905C132.544 121.539 132.68 122.31 132.762 123.219C132.871 124.1 132.925 125.023 132.925 125.986C132.925 126.922 132.884 127.859 132.803 128.795C132.721 129.703 132.584 130.489 132.394 131.149C132.039 132.471 131.427 133.545 130.556 134.371C129.711 135.197 128.745 135.831 127.655 136.271C126.593 136.685 125.476 136.946 124.305 137.056C123.134 137.138 122.071 137.097 121.118 136.932C119.184 136.574 117.877 135.968 117.196 135.114C116.515 134.233 116.243 133.27 116.379 132.224C116.461 131.673 116.72 131.149 117.155 130.653C117.591 130.13 118.149 129.662 118.83 129.249C119.511 128.808 120.26 128.41 121.077 128.052C121.921 127.666 122.752 127.336 123.569 127.061C123.814 126.978 123.978 126.854 124.06 126.688C124.141 126.523 124.155 126.372 124.101 126.234C124.073 126.069 123.978 125.958 123.814 125.903C123.651 125.848 123.446 125.876 123.201 125.986C122.139 126.482 121.118 126.84 120.138 127.061C119.184 127.281 118.176 127.432 117.114 127.515C115.916 127.597 114.935 127.624 114.173 127.597C113.41 127.542 112.797 127.418 112.334 127.226C111.898 127.005 111.599 126.716 111.436 126.358C111.272 125.973 111.19 125.504 111.19 124.953C111.218 123.962 111.668 123.301 112.539 122.971C113.438 122.64 114.909 122.476 116.951 122.476H118.217C118.761 122.476 119.347 122.489 119.974 122.517C120.627 122.517 121.268 122.53 121.895 122.558C122.521 122.585 123.079 122.613 123.569 122.641C123.896 122.668 124.141 122.599 124.305 122.434C124.495 122.269 124.591 122.09 124.591 121.897C124.591 121.705 124.509 121.526 124.346 121.36C124.182 121.195 123.923 121.112 123.569 121.112H115.071C114.309 121.112 113.615 121.099 112.988 121.071C112.389 121.016 111.871 120.892 111.436 120.699C111 120.506 110.659 120.203 110.414 119.79C110.196 119.377 110.087 118.799 110.087 118.056C110.087 117.56 110.21 117.161 110.455 116.858C110.727 116.528 111.082 116.253 111.518 116.032C111.981 115.812 112.511 115.633 113.11 115.495C113.71 115.33 114.363 115.164 115.071 114.999C115.752 114.889 116.556 114.807 117.481 114.752C118.435 114.697 119.416 114.669 120.424 114.669ZM8.62012 114.627C10.3632 114.544 12.1341 114.531 13.9316 114.586C15.3477 114.641 16.5735 114.792 17.6084 115.04C18.6434 115.288 19.5017 115.633 20.1826 116.073C20.8634 116.486 21.3941 116.982 21.7754 117.561C22.1566 118.111 22.4156 118.731 22.5518 119.419C22.7152 120.273 22.8382 121.195 22.9199 122.187C23.0016 123.15 23.0154 124.141 22.9609 125.16C22.9337 126.179 22.8107 127.185 22.5928 128.176C22.4021 129.139 22.0753 130.034 21.6123 130.86C20.9042 132.237 19.6786 133.352 17.9355 134.206C16.2196 135.032 13.9311 135.362 11.0713 135.197C8.56572 135.06 6.72678 134.564 5.55566 133.71C4.41206 132.829 3.73156 131.562 3.51367 129.91C3.40478 129.002 3.60854 128.092 4.12598 127.184C4.64342 126.275 5.37896 125.421 6.33203 124.623C7.28527 123.797 8.41635 123.053 9.72363 122.393C11.0308 121.704 12.4338 121.154 13.9316 120.741C14.095 120.686 14.2043 120.589 14.2588 120.451C14.3402 120.314 14.3531 120.19 14.2988 120.08C14.2716 119.943 14.1907 119.832 14.0547 119.749C13.9457 119.666 13.7951 119.653 13.6045 119.708C12.4606 120.093 11.2891 120.452 10.0908 120.782C8.89252 121.113 7.50334 121.347 5.92383 121.484C5.18854 121.539 4.45306 121.553 3.71777 121.525C3.0098 121.47 2.3835 121.346 1.83887 121.153C1.29413 120.961 0.844311 120.672 0.490234 120.286C0.163433 119.873 0 119.322 0 118.634C5.59404e-05 117.67 0.299507 116.899 0.898438 116.321C1.52484 115.743 2.61466 115.33 4.16699 115.082C5.4198 114.862 6.90434 114.71 8.62012 114.627ZM44.8027 130.605C44.174 130.605 43.7344 131.199 43.7344 131.834C43.7346 132.469 44.1741 133.062 44.8027 133.062C45.4312 133.061 45.8699 132.469 45.8701 131.834C45.8701 131.199 45.4313 130.606 44.8027 130.605ZM52.0635 130.605C51.4348 130.606 50.9961 131.199 50.9961 131.834C50.9963 132.469 51.4349 133.061 52.0635 133.062C52.6921 133.062 53.1317 132.469 53.1318 131.834C53.1318 131.199 52.6922 130.605 52.0635 130.605ZM154.702 130.605C154.074 130.606 153.635 131.199 153.635 131.834C153.635 132.469 154.074 133.061 154.702 133.062C155.331 133.062 155.77 132.469 155.771 131.834C155.771 131.199 155.331 130.605 154.702 130.605ZM161.963 130.605C161.334 130.606 160.896 131.199 160.896 131.834C160.896 132.469 161.335 133.061 161.963 133.062C162.591 133.062 163.031 132.469 163.031 131.834C163.031 131.199 162.592 130.605 161.963 130.605ZM47.0449 129.043C46.4163 129.043 45.9776 129.636 45.9775 130.271C45.9775 130.905 46.4162 131.499 47.0449 131.499C47.6736 131.499 48.1123 130.905 48.1123 130.271C48.1122 129.636 47.6736 129.043 47.0449 129.043ZM49.8213 129.043C49.1926 129.043 48.753 129.636 48.7529 130.271C48.7529 130.905 49.1926 131.499 49.8213 131.499C50.45 131.499 50.8887 130.905 50.8887 130.271C50.8886 129.636 50.4499 129.043 49.8213 129.043ZM156.944 129.043C156.316 129.043 155.877 129.636 155.877 130.271C155.877 130.905 156.316 131.499 156.944 131.499C157.573 131.499 158.013 130.905 158.013 130.271C158.013 129.636 157.573 129.043 156.944 129.043ZM159.721 129.043C159.092 129.043 158.653 129.636 158.653 130.271C158.653 130.905 159.092 131.499 159.721 131.499C160.349 131.499 160.789 130.905 160.789 130.271C160.789 129.636 160.349 129.043 159.721 129.043Z" fill="#8ED7FF"/>
</svg>
